<svg xmlns="http://www.w3.org/2000/svg" width="39.01" height="59.257" viewBox="0 0 39.01 59.257"><defs><style>.a{fill:#fff;fill-rule:evenodd;}</style></defs><g transform="translate(0)"><path class="a" d="M39.008,11.591c0-.013,0-.025,0-.038a1.154,1.154,0,0,0-.019-.148h0a1.212,1.212,0,0,0-.04-.144l-.013-.035a1.252,1.252,0,0,0-.057-.131l0-.007a1.136,1.136,0,0,0-.08-.127l-.023-.031a1.167,1.167,0,0,0-.1-.117L28.2.339a1.168,1.168,0,0,0-.117-.1L28.05.215a1.1,1.1,0,0,0-.127-.08l-.009,0a1.212,1.212,0,0,0-.129-.057L27.749.062a1.185,1.185,0,0,0-.144-.04h0A1.227,1.227,0,0,0,27.457,0l-.038,0L27.38,0H1.158A1.157,1.157,0,0,0,0,1.157V50.7a1.157,1.157,0,0,0,1.157,1.157H18.582V58.1a1.158,1.158,0,0,0,1.773.981l4.408-2.765,4.408,2.765a1.157,1.157,0,0,0,1.773-.981V51.852h6.909A1.157,1.157,0,0,0,39.01,50.7V11.63c0-.013,0-.026,0-.039ZM28.537,3.951l6.522,6.522H28.537Zm-10.526,31.8a3.555,3.555,0,0,1-.217-.73,3.435,3.435,0,0,1,.6-.432,4.2,4.2,0,0,0,1.219-1.018,4.173,4.173,0,0,0,.6-1.482,3.742,3.742,0,0,1,.215-.671,1.447,1.447,0,0,1,.287-.021c.129,0,.273.007.426.015.175.009.356.018.545.018a3.282,3.282,0,0,0,1.058-.149,4.365,4.365,0,0,0,1.335-.823,2.966,2.966,0,0,1,.677-.465,2.765,2.765,0,0,1,.688.465,4.367,4.367,0,0,0,1.336.823,3.28,3.28,0,0,0,1.058.149c.189,0,.37-.009.545-.018.153-.008.3-.015.426-.015a1.414,1.414,0,0,1,.287.021,3.709,3.709,0,0,1,.214.671,4.174,4.174,0,0,0,.6,1.482,4.2,4.2,0,0,0,1.219,1.018,3.471,3.471,0,0,1,.6.432,3.579,3.579,0,0,1-.217.73,4.583,4.583,0,0,0-.367,1.59,4.6,4.6,0,0,0,.367,1.59,3.555,3.555,0,0,1,.217.73,3.471,3.471,0,0,1-.6.432,3.3,3.3,0,0,0-1.824,2.5,3.757,3.757,0,0,1-.214.671,1.451,1.451,0,0,1-.287.021c-.129,0-.274-.007-.426-.015-.175-.009-.356-.018-.545-.018a3.28,3.28,0,0,0-1.058.149,4.376,4.376,0,0,0-1.336.823,2.883,2.883,0,0,1-.683.464,2.882,2.882,0,0,1-.682-.464,4.381,4.381,0,0,0-1.336-.823,3.282,3.282,0,0,0-1.058-.149c-.189,0-.37.009-.545.018-.152.008-.3.015-.426.015a1.451,1.451,0,0,1-.287-.021,3.742,3.742,0,0,1-.215-.671,4.165,4.165,0,0,0-.6-1.482,4.189,4.189,0,0,0-1.219-1.018,3.447,3.447,0,0,1-.6-.432,3.587,3.587,0,0,1,.217-.73,4.583,4.583,0,0,0,.367-1.59,4.593,4.593,0,0,0-.367-1.59Zm10.617,20.26-3.251-2.039a1.16,1.16,0,0,0-1.231,0L20.9,56.007V45.592c.123,0,.244-.008.361-.014.153-.008.3-.015.429-.015a1.135,1.135,0,0,1,.327.03,3.115,3.115,0,0,1,.616.431A3.408,3.408,0,0,0,24.763,47a3.408,3.408,0,0,0,2.134-.976,3.1,3.1,0,0,1,.615-.43,1.142,1.142,0,0,1,.327-.03c.131,0,.275.007.429.015.117.006.238.011.36.014V56.007Zm2.315-6.47V44.659a4.212,4.212,0,0,0,.609-1.491,2.978,2.978,0,0,1,.231-.693,3,3,0,0,1,.588-.43,3.265,3.265,0,0,0,1.56-1.655,3.344,3.344,0,0,0-.244-2.26,3.127,3.127,0,0,1-.226-.793,3.124,3.124,0,0,1,.226-.793,3.345,3.345,0,0,0,.244-2.261,3.266,3.266,0,0,0-1.56-1.655,3.042,3.042,0,0,1-.588-.429,2.991,2.991,0,0,1-.231-.693,3.23,3.23,0,0,0-1.082-1.966,2.75,2.75,0,0,0-1.66-.461c-.187,0-.368.009-.543.018-.153.008-.3.015-.428.015a1.137,1.137,0,0,1-.327-.03,3.089,3.089,0,0,1-.615-.431,3.412,3.412,0,0,0-2.134-.976,3.411,3.411,0,0,0-2.134.976,3.108,3.108,0,0,1-.615.431,1.139,1.139,0,0,1-.327.03c-.13,0-.275-.007-.429-.015-.175-.009-.355-.018-.543-.018a2.747,2.747,0,0,0-1.659.461,3.229,3.229,0,0,0-1.083,1.966,3,3,0,0,1-.23.693,3.042,3.042,0,0,1-.589.43,3.268,3.268,0,0,0-1.56,1.655,3.345,3.345,0,0,0,.244,2.261,3.124,3.124,0,0,1,.226.793,3.127,3.127,0,0,1-.226.793,3.345,3.345,0,0,0-.244,2.261,3.269,3.269,0,0,0,1.56,1.655,3.028,3.028,0,0,1,.589.43,3,3,0,0,1,.23.693,4.21,4.21,0,0,0,.61,1.491v4.879H2.315V2.315H26.222V11.63a1.157,1.157,0,0,0,1.157,1.157H36.7v36.75Zm0,0" transform="translate(0 0)"/><path class="a" d="M50.021,92.807H64.932a1.157,1.157,0,0,0,0-2.315H50.021a1.157,1.157,0,0,0,0,2.315Zm0,0" transform="translate(-43.208 -80.019)"/><path class="a" d="M75.535,140.969H50.021a1.157,1.157,0,0,0,0,2.315H75.535a1.157,1.157,0,0,0,0-2.315Zm0,0" transform="translate(-43.209 -124.654)"/><path class="a" d="M70.906,191.445H50.021a1.157,1.157,0,0,0,0,2.315H70.906a1.157,1.157,0,0,0,0-2.315Zm0,0" transform="translate(-43.209 -169.288)"/><path class="a" d="M270.466,191.445a1.157,1.157,0,1,0,1.157,1.157A1.16,1.16,0,0,0,270.466,191.445Zm0,0" transform="translate(-238.14 -169.288)"/></g></svg>