<svg id="document" xmlns="http://www.w3.org/2000/svg" width="39.024" height="46.829" viewBox="0 0 39.024 46.829">
  <g id="Grupo_5305" data-name="Grupo 5305" transform="translate(9.366 33.561)">
    <g id="Grupo_5304" data-name="Grupo 5304">
      <path id="Trazado_5489" data-name="Trazado 5489" d="M138.341,344H136.78a.781.781,0,0,0,0,1.561h1.561a.781.781,0,1,0,0-1.561Z" transform="translate(-136 -344)" fill="#00993e"/>
    </g>
  </g>
  <g id="Grupo_5307" data-name="Grupo 5307" transform="translate(14.049 33.561)">
    <g id="Grupo_5306" data-name="Grupo 5306" transform="translate(0)">
      <path id="Trazado_5490" data-name="Trazado 5490" d="M203.512,344H184.78a.781.781,0,0,0,0,1.561h18.732a.781.781,0,0,0,0-1.561Z" transform="translate(-184 -344)" fill="#00993e"/>
    </g>
  </g>
  <g id="Grupo_5309" data-name="Grupo 5309" transform="translate(9.366 28.878)">
    <g id="Grupo_5308" data-name="Grupo 5308">
      <path id="Trazado_5491" data-name="Trazado 5491" d="M138.341,296H136.78a.78.78,0,1,0,0,1.561h1.561a.78.78,0,1,0,0-1.561Z" transform="translate(-136 -296)" fill="#00993e"/>
    </g>
  </g>
  <g id="Grupo_5311" data-name="Grupo 5311" transform="translate(14.049 28.878)">
    <g id="Grupo_5310" data-name="Grupo 5310" transform="translate(0)">
      <path id="Trazado_5492" data-name="Trazado 5492" d="M203.512,296H184.78a.78.78,0,0,0,0,1.561h18.732a.78.78,0,1,0,0-1.561Z" transform="translate(-184 -296)" fill="#00993e"/>
    </g>
  </g>
  <g id="Grupo_5313" data-name="Grupo 5313" transform="translate(9.366 24.195)">
    <g id="Grupo_5312" data-name="Grupo 5312">
      <path id="Trazado_5493" data-name="Trazado 5493" d="M138.341,248H136.78a.781.781,0,0,0,0,1.561h1.561a.781.781,0,1,0,0-1.561Z" transform="translate(-136 -248)" fill="#00993e"/>
    </g>
  </g>
  <g id="Grupo_5315" data-name="Grupo 5315" transform="translate(14.049 24.195)">
    <g id="Grupo_5314" data-name="Grupo 5314" transform="translate(0)">
      <path id="Trazado_5494" data-name="Trazado 5494" d="M203.512,248H184.78a.781.781,0,0,0,0,1.561h18.732a.781.781,0,0,0,0-1.561Z" transform="translate(-184 -248)" fill="#00993e"/>
    </g>
  </g>
  <g id="Grupo_5317" data-name="Grupo 5317" transform="translate(9.366 19.512)">
    <g id="Grupo_5316" data-name="Grupo 5316">
      <path id="Trazado_5495" data-name="Trazado 5495" d="M138.341,200H136.78a.78.78,0,0,0,0,1.561h1.561a.78.78,0,1,0,0-1.561Z" transform="translate(-136 -200)" fill="#00993e"/>
    </g>
  </g>
  <g id="Grupo_5319" data-name="Grupo 5319" transform="translate(14.049 19.512)">
    <g id="Grupo_5318" data-name="Grupo 5318" transform="translate(0)">
      <path id="Trazado_5496" data-name="Trazado 5496" d="M203.512,200H184.78a.78.78,0,0,0,0,1.561h18.732a.78.78,0,0,0,0-1.561Z" transform="translate(-184 -200)" fill="#00993e"/>
    </g>
  </g>
  <g id="Grupo_5321" data-name="Grupo 5321" transform="translate(9.366 14.829)">
    <g id="Grupo_5320" data-name="Grupo 5320">
      <path id="Trazado_5497" data-name="Trazado 5497" d="M138.341,152H136.78a.78.78,0,0,0,0,1.561h1.561a.78.78,0,1,0,0-1.561Z" transform="translate(-136 -152)" fill="#00993e"/>
    </g>
  </g>
  <g id="Grupo_5323" data-name="Grupo 5323" transform="translate(14.049 14.829)">
    <g id="Grupo_5322" data-name="Grupo 5322" transform="translate(0)">
      <path id="Trazado_5498" data-name="Trazado 5498" d="M203.512,152H184.78a.78.78,0,0,0,0,1.561h18.732a.78.78,0,1,0,0-1.561Z" transform="translate(-184 -152)" fill="#00993e"/>
    </g>
  </g>
  <g id="Grupo_5325" data-name="Grupo 5325" transform="translate(0)">
    <g id="Grupo_5324" data-name="Grupo 5324">
      <path id="Trazado_5499" data-name="Trazado 5499" d="M79.014,11.658a.737.737,0,0,0-.04-.2c-.009-.025-.015-.049-.026-.073a.781.781,0,0,0-.156-.229L67.865.229a.78.78,0,0,0-.229-.156c-.024-.011-.048-.017-.073-.026a.778.778,0,0,0-.2-.041c-.013,0-.028-.006-.045-.006H45.463a.781.781,0,0,0-.78.78V3.122h-3.9A.781.781,0,0,0,40,3.9V46.048a.781.781,0,0,0,.78.78h32.78a.781.781,0,0,0,.78-.78v-3.9h3.9a.781.781,0,0,0,.78-.78V11.707C79.024,11.69,79.015,11.675,79.014,11.658ZM68.1,2.665l8.262,8.262H68.1Zm4.683,42.6H41.561V4.683h3.122V41.365a.781.781,0,0,0,.78.78H72.78Zm4.683-4.683H46.244V1.561H66.536V11.707a.781.781,0,0,0,.78.78H77.463Z" transform="translate(-40)" fill="#00993e"/>
    </g>
  </g>
  <g id="Grupo_5327" data-name="Grupo 5327" transform="translate(9.366 7.024)">
    <g id="Grupo_5326" data-name="Grupo 5326">
      <path id="Trazado_5500" data-name="Trazado 5500" d="M141.463,72H136.78a.78.78,0,0,0-.78.78v4.683a.781.781,0,0,0,.78.78h4.683a.781.781,0,0,0,.78-.78V72.78A.781.781,0,0,0,141.463,72Zm-.78,4.683h-3.122V73.561h3.122Z" transform="translate(-136 -72)" fill="#00993e"/>
    </g>
  </g>
</svg>
