<svg xmlns="http://www.w3.org/2000/svg" width="53.651" height="56.662" viewBox="0 0 53.651 56.662"><defs><style>.a{fill:#00993e;}</style></defs><g transform="translate(0 0)"><g transform="translate(0 16.23)"><g transform="translate(0)"><path class="a" d="M66.145,184.872H63.718V149.629a2.978,2.978,0,0,0-2.975-2.975H55.318a2.978,2.978,0,0,0-2.975,2.975v35.243H46.18V165.6a2.978,2.978,0,0,0-2.975-2.975H37.779A2.978,2.978,0,0,0,34.8,165.6v19.275H28.641V174.89a2.978,2.978,0,0,0-2.975-2.975H20.241a2.978,2.978,0,0,0-2.975,2.975v9.983H14.708a1.107,1.107,0,0,0,0,2.213H66.145a1.107,1.107,0,0,0,0-2.213Zm-39.718,0H19.479V174.89a.762.762,0,0,1,.762-.762h5.425a.762.762,0,0,1,.762.762Zm17.539,0H37.018V165.6a.762.762,0,0,1,.762-.762H43.2a.762.762,0,0,1,.762.762Zm17.539,0H54.556V149.629a.762.762,0,0,1,.762-.762h5.425a.762.762,0,0,1,.762.762v35.243Z" transform="translate(-13.601 -146.654)"/></g></g><g transform="translate(9.489 0)"><path class="a" d="M139.972,1.164A1.1,1.1,0,0,0,138.81,0l-.054,0h-6.7a1.107,1.107,0,1,0,0,2.213H136.2l-10.94,10.94L121.13,9.028a1.107,1.107,0,0,0-1.565,0L99.67,28.923a1.107,1.107,0,0,0,1.565,1.565l19.112-19.112,4.126,4.126a1.107,1.107,0,0,0,1.565,0L137.761,3.779V7.52a1.107,1.107,0,1,0,2.213,0v-6.3C139.974,1.2,139.972,1.182,139.972,1.164Z" transform="translate(-99.346)"/></g><g transform="translate(5.759 32.46)"><ellipse class="a" cx="1.107" cy="1.107" rx="1.107" ry="1.107"/></g></g></svg>