<svg xmlns="http://www.w3.org/2000/svg" width="56.556" height="56.556" viewBox="0 0 56.556 56.556"><defs><style>.a{fill:#00993e;}</style></defs><g transform="translate(0)"><g transform="translate(0 0)"><g transform="translate(0 0)"><path class="a" d="M177.229,43.074a1.233,1.233,0,0,0,1.23-1.229v-.615a1.229,1.229,0,0,0-2.459,0v.615A1.233,1.233,0,0,0,177.229,43.074Z" transform="translate(-148.952 -33.853)"/><path class="a" d="M177.229,308A1.233,1.233,0,0,0,176,309.229v.615a1.229,1.229,0,0,0,2.459,0v-.615A1.233,1.233,0,0,0,177.229,308Z" transform="translate(-148.952 -260.665)"/><path class="a" d="M41.844,176h-.615a1.229,1.229,0,0,0,0,2.459h.615a1.229,1.229,0,0,0,0-2.459Z" transform="translate(-33.853 -148.952)"/><path class="a" d="M309.844,176h-.615a1.229,1.229,0,0,0,0,2.459h.615a1.229,1.229,0,0,0,0-2.459Z" transform="translate(-260.665 -148.952)"/><path class="a" d="M82.09,80.369a1.217,1.217,0,0,0-1.721,1.721l.43.43a1.189,1.189,0,0,0,1.721,0,1.188,1.188,0,0,0,0-1.721Z" transform="translate(-67.705 -67.705)"/><path class="a" d="M80.8,269.569l-.43.43a1.188,1.188,0,0,0,0,1.721,1.188,1.188,0,0,0,1.721,0l.43-.43a1.217,1.217,0,0,0-1.721-1.721Z" transform="translate(-67.705 -227.828)"/><path class="a" d="M270,80.369l-.43.43a1.189,1.189,0,0,0,0,1.721,1.188,1.188,0,0,0,1.721,0l.43-.43A1.217,1.217,0,1,0,270,80.369Z" transform="translate(-227.828 -67.705)"/><path class="a" d="M178.459,112.418V101.229a1.229,1.229,0,0,0-2.459,0v11.68a1.214,1.214,0,0,0,.369.861l13.463,13.463a1.189,1.189,0,0,0,1.721,0,1.189,1.189,0,0,0,0-1.721Z" transform="translate(-148.952 -84.632)"/><path class="a" d="M28.278,0A28.278,28.278,0,1,0,56.556,28.278,28.282,28.282,0,0,0,28.278,0Zm0,54.1A25.819,25.819,0,1,1,54.1,28.278,25.816,25.816,0,0,1,28.278,54.1Z" transform="translate(0 0)"/></g></g></g></svg>