<svg xmlns="http://www.w3.org/2000/svg" width="33.931" height="37.016" viewBox="0 0 33.931 37.016">
  <g id="copiar" transform="translate(0 0)">
    <path id="Trazado_5764" data-name="Trazado 5764" d="M28.364,34.847H9.856A3.86,3.86,0,0,1,6,30.991V7.856A3.86,3.86,0,0,1,9.856,4H28.364A3.86,3.86,0,0,1,32.22,7.856V30.991A3.86,3.86,0,0,1,28.364,34.847ZM9.856,5.542A2.316,2.316,0,0,0,7.542,7.856V30.991A2.316,2.316,0,0,0,9.856,33.3H28.364a2.316,2.316,0,0,0,2.313-2.313V7.856a2.316,2.316,0,0,0-2.313-2.313Z" transform="translate(1.712 2.169)" fill="#3f51b5"/>
    <path id="Trazado_5765" data-name="Trazado 5765" d="M6.4,32.389H4.856A3.86,3.86,0,0,1,1,28.533V3.856A3.86,3.86,0,0,1,4.856,0H23.364A3.86,3.86,0,0,1,27.22,3.856a.771.771,0,1,1-1.542,0,2.316,2.316,0,0,0-2.313-2.313H4.856A2.316,2.316,0,0,0,2.542,3.856V28.533a2.316,2.316,0,0,0,2.313,2.313H6.4a.771.771,0,0,1,0,1.542Z" transform="translate(-1 0)" fill="#3f51b5"/>
    <path id="Trazado_5766" data-name="Trazado 5766" d="M23.11,17.542H10.771a.771.771,0,0,1,0-1.542H23.11a.771.771,0,1,1,0,1.542Z" transform="translate(3.881 8.677)" fill="#3f51b5"/>
    <path id="Trazado_5767" data-name="Trazado 5767" d="M23.11,21.542H10.771a.771.771,0,1,1,0-1.542H23.11a.771.771,0,1,1,0,1.542Z" transform="translate(3.881 10.846)" fill="#3f51b5"/>
    <path id="Trazado_5768" data-name="Trazado 5768" d="M23.11,13.542H10.771a.771.771,0,1,1,0-1.542H23.11a.771.771,0,1,1,0,1.542Z" transform="translate(3.881 6.508)" fill="#3f51b5"/>
    <path id="Trazado_5769" data-name="Trazado 5769" d="M23.11,9.542H10.771a.771.771,0,1,1,0-1.542H23.11a.771.771,0,1,1,0,1.542Z" transform="translate(3.881 4.339)" fill="#3f51b5"/>
  </g>
</svg>
