<svg xmlns="http://www.w3.org/2000/svg" width="58.906" height="51.543" viewBox="0 0 58.906 51.543"><defs><style>.a{fill:#3f51b5;}</style></defs><g transform="translate(0 -1)"><g transform="translate(9.818 1)"><path class="a" d="M16.272,25.544A12.272,12.272,0,1,1,28.544,13.272,12.286,12.286,0,0,1,16.272,25.544Zm0-22.09a9.818,9.818,0,1,0,9.818,9.818A9.828,9.828,0,0,0,16.272,3.454Z" transform="translate(-4 -1)"/></g><g transform="translate(0 30.453)"><path class="a" d="M42.952,35.09H1.227A1.228,1.228,0,0,1,0,33.863V24.045A11.058,11.058,0,0,1,11.045,13h22.09A11.058,11.058,0,0,1,44.18,24.045v9.818A1.228,1.228,0,0,1,42.952,35.09Zm-40.5-2.454H41.725V24.045a8.6,8.6,0,0,0-8.59-8.59H11.045a8.6,8.6,0,0,0-8.59,8.59Z" transform="translate(0 -13)"/></g><g transform="translate(36.816 23.09)"><path class="a" d="M35.863,12.454H16.227a1.227,1.227,0,1,1,0-2.454H35.863a1.227,1.227,0,0,1,0,2.454Z" transform="translate(-15 -10)"/></g><g transform="translate(46.634 13.276)"><path class="a" d="M20.228,28.087a1.226,1.226,0,0,1-.869-2.094l8.949-8.949L19.359,8.1a1.227,1.227,0,1,1,1.735-1.735l9.818,9.818a1.228,1.228,0,0,1,0,1.735l-9.818,9.818a1.231,1.231,0,0,1-.866.356Z" transform="translate(-19 -6.002)"/></g></g></svg>