<svg xmlns="http://www.w3.org/2000/svg" xmlns:xlink="http://www.w3.org/1999/xlink" width="90" height="107.01" viewBox="0 0 90 107.01"><defs><style>.a{fill:#fff;}.b{filter:url(#e);}.c{filter:url(#c);}.d{filter:url(#a);}</style><filter id="a" x="0" y="0" width="63.254" height="68.496" filterUnits="userSpaceOnUse"><feOffset dy="3" input="SourceAlpha"/><feGaussianBlur stdDeviation="3" result="b"/><feFlood flood-opacity="0.161"/><feComposite operator="in" in2="b"/><feComposite in="SourceGraphic"/></filter><filter id="c" x="37.006" y="18.434" width="31.618" height="31.629" filterUnits="userSpaceOnUse"><feOffset dy="3" input="SourceAlpha"/><feGaussianBlur stdDeviation="3" result="d"/><feFlood flood-opacity="0.161"/><feComposite operator="in" in2="d"/><feComposite in="SourceGraphic"/></filter><filter id="e" x="21.379" y="6.121" width="68.621" height="100.89" filterUnits="userSpaceOnUse"><feOffset dy="3" input="SourceAlpha"/><feGaussianBlur stdDeviation="3" result="f"/><feFlood flood-opacity="0.161"/><feComposite operator="in" in2="f"/><feComposite in="SourceGraphic"/></filter></defs><g transform="translate(-23.253 -37.658)"><g class="d" transform="matrix(1, 0, 0, 1, 23.25, 37.66)"><path class="a" d="M1030.958,444.067a.314.314,0,0,0-.295.216,2.858,2.858,0,0,1-1.212,1.561,3.766,3.766,0,0,1-1.96.58,41.117,41.117,0,0,1-4.68-1.18,30.118,30.118,0,0,0-8.158-1.177c-7.583,0-14.616,2.534-19.376,7.612a25.342,25.342,0,0,0-6.744,17.94c0,6.956,2.14,12.762,6.378,17.395,4.649,5.036,11.729,7.548,19.6,7.548a24.216,24.216,0,0,0,13.33-3.924,24.782,24.782,0,0,0,5.879-5.192.29.29,0,0,0-.02-.388l-.982-.983a.289.289,0,0,0-.4,0,31.141,31.141,0,0,1-5.833,4.453,20.764,20.764,0,0,1-10.472,2.72c-5.236,0-8.723-1.953-12.126-5.852q-5.154-5.837-5.14-15.633,0-10.655,4.867-16.728c3.262-4.055,6.592-6.073,11.722-6.073a14.694,14.694,0,0,1,12.123,5.653,23.665,23.665,0,0,1,3.761,7.677.29.29,0,0,0,.276.206h1.163a.29.29,0,0,0,.29-.3l-.665-15.829a.31.31,0,0,0-.31-.3Z" transform="translate(-979.53 -438.07)"/></g><g class="c" transform="matrix(1, 0, 0, 1, 23.25, 37.66)"><path class="a" d="M1081.871,490.592a6.809,6.809,0,1,1-6.813-6.815,6.816,6.816,0,0,1,6.813,6.815" transform="translate(-1022.25 -459.34)"/></g><g class="b" transform="matrix(1, 0, 0, 1, 23.25, 37.66)"><path class="a" d="M1085.194,481.819c-.009-.226-.013-.45-.017-.676-.181-10.408-6.8-16.624-11.533-19.748a24.7,24.7,0,0,0-9.343-3.672c-15.628-2.744-24.188,7.346-25.413,8.917a.288.288,0,0,0,.025.382l1,1a.289.289,0,0,0,.415,0c1.432-1.521,10.42-10.35,22.515-6.349,0,0,8.65,2.516,11.337,14.716,1.436,6.523,1.128,19.894-8.746,25.248,0,0-5.13,3.324-20.8,2.751a.292.292,0,0,0-.3.292l.005.526h-.009s.383,21.666-1.092,28.633a4.025,4.025,0,0,1-2.239,2.832,18.143,18.143,0,0,1-6.131,1.342.292.292,0,0,0-.271.288v1.559a.291.291,0,0,0,.291.29h31.341a.29.29,0,0,0,.29-.29V538.3a.288.288,0,0,0-.276-.29,23.739,23.739,0,0,1-7.241-1.336,3.369,3.369,0,0,1-1.865-2.125c-.726-2.442-1.879-9.111-1.437-26.375a.3.3,0,0,1,.293-.287c29.5-.149,29.324-23.473,29.211-26.074" transform="translate(-1004.21 -445.13)"/></g></g></svg>