<svg xmlns="http://www.w3.org/2000/svg" width="47.585" height="51.91" viewBox="0 0 47.585 51.91">
  <g id="content" transform="translate(0)">
    <g id="Grupo_5469" data-name="Grupo 5469" transform="translate(0)">
      <g id="Grupo_5468" data-name="Grupo 5468">
        <path id="Trazado_5715" data-name="Trazado 5715" d="M86.413,300.829h16.222a1.081,1.081,0,1,0,0-2.163H86.413a1.081,1.081,0,1,0,0,2.163Z" transform="translate(-78.843 -268.385)" fill="#00993e"/>
        <path id="Trazado_5716" data-name="Trazado 5716" d="M86.413,236.829h23.792a1.081,1.081,0,1,0,0-2.163H86.413a1.081,1.081,0,1,0,0,2.163Z" transform="translate(-78.843 -210.874)" fill="#00993e"/>
        <path id="Trazado_5717" data-name="Trazado 5717" d="M97.228,362.667H86.413a1.081,1.081,0,1,0,0,2.163H97.228a1.081,1.081,0,1,0,0-2.163Z" transform="translate(-78.843 -325.897)" fill="#00993e"/>
        <path id="Trazado_5718" data-name="Trazado 5718" d="M97.228,426.667H86.413a1.081,1.081,0,1,0,0,2.163H97.228a1.081,1.081,0,1,0,0-2.163Z" transform="translate(-78.843 -383.408)" fill="#00993e"/>
        <path id="Trazado_5719" data-name="Trazado 5719" d="M86.413,172.829h23.792a1.081,1.081,0,0,0,0-2.163H86.413a1.081,1.081,0,0,0,0,2.163Z" transform="translate(-78.843 -153.363)" fill="#00993e"/>
        <path id="Trazado_5720" data-name="Trazado 5720" d="M68.6,39.25l-6.489-6.489a1.081,1.081,0,0,0-.765-.317H60.265V11.9a1.081,1.081,0,0,0-.317-.765L49.133.317A1.081,1.081,0,0,0,48.369,0H25.658a4.331,4.331,0,0,0-4.326,4.326V47.584a4.331,4.331,0,0,0,4.326,4.326H55.939a1.078,1.078,0,0,0,.727-.281l11.9-10.815A1.08,1.08,0,0,0,68.6,39.25ZM49.45,3.692l7.122,7.122h-4.96A2.165,2.165,0,0,1,49.45,8.652ZM25.658,49.747a2.165,2.165,0,0,1-2.163-2.163V4.326a2.165,2.165,0,0,1,2.163-2.163H47.287V8.652a4.331,4.331,0,0,0,4.326,4.326H58.1V32.444h-7.57a1.081,1.081,0,0,0-.765.317L43.278,39.25a1.08,1.08,0,0,0,.038,1.565l9.826,8.933H25.658ZM58.764,38.933H53.114l1.442-4.326h2.766Zm-6.489-4.326-1.442,4.326H46.654l4.325-4.326ZM46.84,41.1h4.041l2.31,5.774Zm9.1,6.822L53.21,41.1h5.459Zm2.748-1.048L61,41.1h4.041Zm2.358-7.937L59.6,34.607h1.3l4.325,4.326Z" transform="translate(-21.332)" fill="#00993e"/>
      </g>
    </g>
  </g>
</svg>
