<svg xmlns="http://www.w3.org/2000/svg" width="90.782" height="90.782" viewBox="0 0 90.782 90.782">
  <g id="Grupo_5114" data-name="Grupo 5114" transform="translate(-16.753 -16.753)">
    <g id="Calendar" transform="translate(16.753 16.753)">
      <path id="Trazado_5747" data-name="Trazado 5747" d="M85.217,11.078H77.652V8.052a6.052,6.052,0,0,0-12.1,0v3.026h-12.1V8.052a6.052,6.052,0,1,0-12.1,0v3.026h-12.1V8.052a6.052,6.052,0,1,0-12.1,0v3.026H9.565A7.565,7.565,0,0,0,2,18.643V79.165A7.565,7.565,0,0,0,9.565,86.73H51.93a1.513,1.513,0,0,0,0-3.026H9.565a4.553,4.553,0,0,1-4.539-4.539v-46.9h84.73V57.982a1.513,1.513,0,0,0,3.026,0V18.643a7.565,7.565,0,0,0-7.565-7.565ZM68.574,8.052a3.026,3.026,0,1,1,6.052,0V17.13a3.026,3.026,0,1,1-6.052,0Zm-24.209,0a3.026,3.026,0,0,1,6.052,0V17.13a3.026,3.026,0,1,1-6.052,0Zm-24.209,0a3.026,3.026,0,1,1,6.052,0V17.13a3.026,3.026,0,1,1-6.052,0Zm69.6,21.183H5.026V18.643A4.553,4.553,0,0,1,9.565,14.1H17.13V17.13a6.052,6.052,0,0,0,12.1,0V14.1h12.1V17.13a6.052,6.052,0,1,0,12.1,0V14.1h12.1V17.13a6.052,6.052,0,0,0,12.1,0V14.1h7.565a4.553,4.553,0,0,1,4.539,4.539Z" transform="translate(-2 -2)" fill="#00993e"/>
      <path id="Trazado_5748" data-name="Trazado 5748" d="M34.1,30.026A3.026,3.026,0,0,0,31.078,27H25.026A3.026,3.026,0,0,0,22,30.026v4.539a3.026,3.026,0,0,0,3.026,3.026h6.052A3.026,3.026,0,0,0,34.1,34.565Zm-9.078,4.539V30.026h6.052v4.539Z" transform="translate(8.261 10.826)" fill="#00993e"/>
      <path id="Trazado_5749" data-name="Trazado 5749" d="M22.1,30.026A3.026,3.026,0,0,0,19.078,27H13.026A3.026,3.026,0,0,0,10,30.026v4.539a3.026,3.026,0,0,0,3.026,3.026h6.052A3.026,3.026,0,0,0,22.1,34.565Zm-9.078,4.539V30.026h6.052v4.539Z" transform="translate(2.104 10.826)" fill="#00993e"/>
      <path id="Trazado_5750" data-name="Trazado 5750" d="M55.078,37.591A3.026,3.026,0,0,0,58.1,34.565V30.026A3.026,3.026,0,0,0,55.078,27H49.026A3.026,3.026,0,0,0,46,30.026v4.539a3.026,3.026,0,0,0,3.026,3.026Zm-6.052-7.565h6.052v4.539H49.026Z" transform="translate(20.574 10.826)" fill="#00993e"/>
      <path id="Trazado_5751" data-name="Trazado 5751" d="M34.1,39.026A3.026,3.026,0,0,0,31.078,36H25.026A3.026,3.026,0,0,0,22,39.026v4.539a3.026,3.026,0,0,0,3.026,3.026h6.052A3.026,3.026,0,0,0,34.1,43.565Zm-9.078,4.539V39.026h6.052v4.539Z" transform="translate(8.261 15.443)" fill="#00993e"/>
      <path id="Trazado_5752" data-name="Trazado 5752" d="M22.1,39.026A3.026,3.026,0,0,0,19.078,36H13.026A3.026,3.026,0,0,0,10,39.026v4.539a3.026,3.026,0,0,0,3.026,3.026h6.052A3.026,3.026,0,0,0,22.1,43.565Zm-9.078,4.539V39.026h6.052v4.539Z" transform="translate(2.104 15.443)" fill="#00993e"/>
      <path id="Trazado_5753" data-name="Trazado 5753" d="M31.078,45H25.026A3.026,3.026,0,0,0,22,48.026v4.539a3.026,3.026,0,0,0,3.026,3.026h6.052A3.026,3.026,0,0,0,34.1,52.565V48.026A3.026,3.026,0,0,0,31.078,45Zm-6.052,7.565V48.026h6.052v4.539Z" transform="translate(8.261 20.061)" fill="#00993e"/>
      <path id="Trazado_5754" data-name="Trazado 5754" d="M37.026,37.591h6.052A3.026,3.026,0,0,0,46.1,34.565V30.026A3.026,3.026,0,0,0,43.078,27H37.026A3.026,3.026,0,0,0,34,30.026v4.539A3.026,3.026,0,0,0,37.026,37.591Zm0-7.565h6.052v4.539H37.026Z" transform="translate(14.417 10.826)" fill="#00993e"/>
      <path id="Trazado_5755" data-name="Trazado 5755" d="M34,43.565a3.026,3.026,0,0,0,3.026,3.026,1.513,1.513,0,0,0,0-3.026V39.026h6.052a1.513,1.513,0,1,0,0-3.026H37.026A3.026,3.026,0,0,0,34,39.026Z" transform="translate(14.417 15.443)" fill="#00993e"/>
      <path id="Trazado_5756" data-name="Trazado 5756" d="M19.078,45H13.026A3.026,3.026,0,0,0,10,48.026v4.539a3.026,3.026,0,0,0,3.026,3.026h6.052A3.026,3.026,0,0,0,22.1,52.565V48.026A3.026,3.026,0,0,0,19.078,45Zm-6.052,7.565V48.026h6.052v4.539Z" transform="translate(2.104 20.061)" fill="#00993e"/>
      <path id="Trazado_5757" data-name="Trazado 5757" d="M55.669,36A19.669,19.669,0,1,0,75.339,55.669,19.669,19.669,0,0,0,55.669,36Zm0,36.313A16.643,16.643,0,1,1,72.313,55.669,16.643,16.643,0,0,1,55.669,72.313Z" transform="translate(15.443 15.443)" fill="#00993e"/>
      <path id="Trazado_5758" data-name="Trazado 5758" d="M61.458,44.958,49.689,56.727l-5.349-5.35a1.513,1.513,0,1,0-2.14,2.14l6.418,6.42a1.513,1.513,0,0,0,2.139,0L63.6,47.1a1.513,1.513,0,1,0-2.14-2.14Z" transform="translate(18.397 19.812)" fill="#00993e"/>
    </g>
  </g>
</svg>
