<svg xmlns="http://www.w3.org/2000/svg" width="92.441" height="97.453" viewBox="0 0 92.441 97.453">
  <g id="newsletter" transform="translate(-13.167 0)">
    <g id="Grupo_5300" data-name="Grupo 5300" transform="translate(13.167 0)">
      <g id="Grupo_5299" data-name="Grupo 5299">
        <path id="Trazado_5759" data-name="Trazado 5759" d="M210.729,58.666a1.428,1.428,0,1,0,0-2.855h-37.2a1.428,1.428,0,1,0,0,2.855Z" transform="translate(-141.85 -45.188)" fill="#00993e"/>
        <path id="Trazado_5760" data-name="Trazado 5760" d="M129.456,104.152a1.428,1.428,0,0,0,1.428,1.428H176.2a1.428,1.428,0,1,0,0-2.855H130.884A1.428,1.428,0,0,0,129.456,104.152Z" transform="translate(-107.322 -83.172)" fill="#00993e"/>
        <path id="Trazado_5761" data-name="Trazado 5761" d="M130.884,152.492H176.2a1.428,1.428,0,1,0,0-2.855H130.884a1.428,1.428,0,0,0,0,2.855Z" transform="translate(-107.322 -121.155)" fill="#00993e"/>
        <path id="Trazado_5762" data-name="Trazado 5762" d="M272.585,196.552H249.927a1.428,1.428,0,0,0,0,2.855h22.658a1.428,1.428,0,1,0,0-2.855Z" transform="translate(-203.706 -159.141)" fill="#00993e"/>
        <path id="Trazado_5763" data-name="Trazado 5763" d="M272.585,243.465H249.927a1.428,1.428,0,1,0,0,2.855h22.658a1.428,1.428,0,1,0,0-2.855Z" transform="translate(-203.706 -197.124)" fill="#00993e"/>
        <path id="Trazado_5764" data-name="Trazado 5764" d="M105.6,46.482A7.659,7.659,0,0,0,102,40.31l-7.686-4.842V27.674h5.406a5.325,5.325,0,0,0,5.319-5.319V6.79A6.8,6.8,0,0,0,98.251,0H30.619a6.805,6.805,0,0,0-6.8,6.8v9.947a1.428,1.428,0,1,0,2.855,0V6.8a3.947,3.947,0,0,1,3.942-3.942h62.1A6.753,6.753,0,0,0,91.461,6.79V48.73L68.306,66.565,63.59,62.992a6.982,6.982,0,0,0-8.4,0L50.47,66.565,26.677,48.238V23.418a1.428,1.428,0,0,0-2.855,0v12.45L16.774,40.31a7.659,7.659,0,0,0-3.6,6.173q-.006.166-.006.337V89.477a7.917,7.917,0,0,0,7.839,7.976H97.769a7.918,7.918,0,0,0,7.839-7.976V46.819c0-.114,0-.226-.007-.337ZM98.251,2.855a3.939,3.939,0,0,1,3.935,3.935V22.355a2.466,2.466,0,0,1-2.464,2.464H94.316V6.79a3.94,3.94,0,0,1,3.935-3.935ZM94.316,38.842l5.49,3.459-5.49,4.229ZM16.74,92.122a5.2,5.2,0,0,1-.718-2.645V46.819c0-.077,0-.153,0-.228a4.7,4.7,0,0,1,.755-2.37L48.111,68.352Zm7.082-46.083L18.969,42.3l4.853-3.058ZM21.006,94.6a4.843,4.843,0,0,1-2.146-.5l38.05-28.831a4.067,4.067,0,0,1,4.956,0L73.923,74.4a1.428,1.428,0,1,0,1.724-2.276l-4.983-3.776,31.329-24.132a4.7,4.7,0,0,1,.755,2.37q0,.112,0,.228V89.477a5.2,5.2,0,0,1-.718,2.645L80.971,76.161a1.428,1.428,0,1,0-1.724,2.276L99.916,94.1a4.843,4.843,0,0,1-2.146.5H21.006Z" transform="translate(-13.167 0)" fill="#00993e"/>
        <path id="Trazado_5765" data-name="Trazado 5765" d="M129.456,205.6a2.742,2.742,0,0,0,2.739,2.739h13.612a2.742,2.742,0,0,0,2.739-2.739v-6.307a2.742,2.742,0,0,0-2.739-2.739H132.195a2.742,2.742,0,0,0-2.739,2.739Zm2.855-6.191h13.379v6.074H132.311Z" transform="translate(-107.322 -159.141)" fill="#00993e"/>
      </g>
    </g>
  </g>
</svg>
