<svg xmlns="http://www.w3.org/2000/svg" width="54.21" height="54.21" viewBox="0 0 54.21 54.21">
  <g id="conversation" transform="translate(0)">
    <g id="Grupo_5453" data-name="Grupo 5453" transform="translate(0 18.423)">
      <g id="Grupo_5452" data-name="Grupo 5452">
        <path id="Trazado_5707" data-name="Trazado 5707" d="M36.634,189.352a1.059,1.059,0,0,0-1.059,1.059v7.306a5.3,5.3,0,0,1-5.294,5.294H18.85a1.059,1.059,0,0,0-1.059,1.058v2.105l-2.527-2.527a1.059,1.059,0,0,0-.971-.636H7.411a5.3,5.3,0,0,1-5.294-5.294V181.411a5.3,5.3,0,0,1,5.294-5.294H18.105a1.059,1.059,0,0,0,0-2.118H7.411A7.42,7.42,0,0,0,0,181.411v16.305a7.42,7.42,0,0,0,7.411,7.411h6.338l4.349,4.349a1.059,1.059,0,0,0,1.807-.748l0-3.6H30.281a7.42,7.42,0,0,0,7.411-7.411v-7.306A1.059,1.059,0,0,0,36.634,189.352Z" transform="translate(0 -174)" fill="#00993e"/>
      </g>
    </g>
    <g id="Grupo_5455" data-name="Grupo 5455" transform="translate(20.752)">
      <g id="Grupo_5454" data-name="Grupo 5454">
        <path id="Trazado_5708" data-name="Trazado 5708" d="M214.069,0h-2.68a15.389,15.389,0,1,0,0,30.778h2.68a15.418,15.418,0,0,0,3.906-.5l3.958,3.956a1.059,1.059,0,0,0,1.807-.749V27.359a15.536,15.536,0,0,0,4.045-4.987,15.223,15.223,0,0,0,1.672-6.983A15.406,15.406,0,0,0,214.069,0Zm7.976,26a1.059,1.059,0,0,0-.422.846V30.93l-2.591-2.59a1.058,1.058,0,0,0-1.059-.263,13.275,13.275,0,0,1-3.9.584h-2.68a13.271,13.271,0,1,1,0-26.543h2.68A13.272,13.272,0,0,1,222.044,26Z" transform="translate(-196)" fill="#00993e"/>
      </g>
    </g>
    <g id="Grupo_5457" data-name="Grupo 5457" transform="translate(33.294 7.418)">
      <g id="Grupo_5456" data-name="Grupo 5456">
        <path id="Trazado_5709" data-name="Trazado 5709" d="M323.416,74.23a4.493,4.493,0,0,0-4.156-4.156,4.448,4.448,0,0,0-3.374,1.194,4.5,4.5,0,0,0-1.424,3.277,1.059,1.059,0,1,0,2.118,0,2.365,2.365,0,0,1,2.535-2.359,2.365,2.365,0,0,1,.35,4.667,2,2,0,0,0-1.578,1.964v2.544a1.059,1.059,0,1,0,2.117,0V78.9A4.459,4.459,0,0,0,323.416,74.23Z" transform="translate(-314.462 -70.063)" fill="#00993e"/>
      </g>
    </g>
    <g id="Grupo_5459" data-name="Grupo 5459" transform="translate(36.718 21.846)">
      <g id="Grupo_5458" data-name="Grupo 5458">
        <path id="Trazado_5710" data-name="Trazado 5710" d="M348.607,206.64a1.06,1.06,0,1,0,.31.749A1.067,1.067,0,0,0,348.607,206.64Z" transform="translate(-346.8 -206.33)" fill="#00993e"/>
      </g>
    </g>
    <g id="Grupo_5461" data-name="Grupo 5461" transform="translate(5.717 32.822)">
      <g id="Grupo_5460" data-name="Grupo 5460">
        <path id="Trazado_5711" data-name="Trazado 5711" d="M77.4,310H55.059a1.059,1.059,0,1,0,0,2.118H77.4a1.059,1.059,0,1,0,0-2.118Z" transform="translate(-54 -310)" fill="#00993e"/>
      </g>
    </g>
    <g id="Grupo_5463" data-name="Grupo 5463" transform="translate(28.058 38.751)">
      <g id="Grupo_5462" data-name="Grupo 5462">
        <path id="Trazado_5712" data-name="Trazado 5712" d="M266.807,366.31a1.058,1.058,0,1,0,.31.749A1.066,1.066,0,0,0,266.807,366.31Z" transform="translate(-265 -366)" fill="#00993e"/>
      </g>
    </g>
    <g id="Grupo_5465" data-name="Grupo 5465" transform="translate(5.717 38.751)">
      <g id="Grupo_5464" data-name="Grupo 5464">
        <path id="Trazado_5713" data-name="Trazado 5713" d="M73.235,366H55.059a1.059,1.059,0,1,0,0,2.118H73.235a1.059,1.059,0,1,0,0-2.118Z" transform="translate(-54 -366)" fill="#00993e"/>
      </g>
    </g>
    <g id="Grupo_5467" data-name="Grupo 5467" transform="translate(5.717 26.893)">
      <g id="Grupo_5466" data-name="Grupo 5466">
        <path id="Trazado_5714" data-name="Trazado 5714" d="M70.517,254H55.059a1.059,1.059,0,0,0,0,2.118H70.517a1.059,1.059,0,0,0,0-2.118Z" transform="translate(-54 -254)" fill="#00993e"/>
      </g>
    </g>
  </g>
</svg>
