<svg xmlns="http://www.w3.org/2000/svg" width="55.246" height="54.234" viewBox="0 0 55.246 54.234">
  <g id="Grupo_5808" data-name="Grupo 5808" transform="translate(-143.944 -257.745)">
    <path id="Trazado_5946" data-name="Trazado 5946" d="M172.539,305.778c-2.741,1.106-5.4,2.12-8,3.253a3.189,3.189,0,0,1-3.8-.653,11.985,11.985,0,0,1-3.822-10.025,2.856,2.856,0,0,1,2.05-2.623c.507-.169.993-.4,1.678-.687l-2.361-1.051c-.174.246-.318.453-.466.656a3.022,3.022,0,0,1-5.477-1.96,1.873,1.873,0,0,1,.081-.682c.5-1.028.036-1.628-.839-2.126a3.9,3.9,0,0,1-2.052-4.024c.133-1.918.013-3.853.04-5.78a1.209,1.209,0,0,0-.6-1.127c-1.223-.858-2.409-1.77-3.606-2.665a3.281,3.281,0,0,1-1.412-2.892c.034-1.034.017-2.071,0-3.106a3.114,3.114,0,0,1,1.214-2.554,51.259,51.259,0,0,1,11.627-7.192c.556-.249,1.094-.361,1.378.317.265.634-.19.947-.7,1.174a49.661,49.661,0,0,0-10.93,6.688c-1.283,1.033-1.343,2.059,0,2.99,2.62,1.812,5.316,3.514,7.967,5.284a.9.9,0,0,0,1.273-.139q2.859-2.5,5.775-4.929c.366-.307.554-.547.35-1.07a1.981,1.981,0,0,1,.7-2.314,4.766,4.766,0,0,1,5.623-.077,2.116,2.116,0,0,1-.013,3.527,4.445,4.445,0,0,1-4.014.694,1.406,1.406,0,0,0-1.451.349c-1.923,1.685-3.884,3.326-5.934,5.07.444.213.782.414,1.146.542,2.165.763,4.323,1.551,6.514,2.233a3.717,3.717,0,0,0,1.936.013,47.7,47.7,0,0,0,18.124-9.278c1.12-.9,1.116-1.875-.008-2.782a47.667,47.667,0,0,0-18.126-9.275,4.208,4.208,0,0,0-1.938.017c-1.2.281-2.365.7-3.544,1.071-.508.158-1.015.2-1.235-.393-.227-.614.112-.976.7-1.15,1.458-.432,2.905-.91,4.379-1.281a3.468,3.468,0,0,1,1.614.043,49.4,49.4,0,0,1,19.362,9.838,3.166,3.166,0,0,1,1.238,2.632q-.025,1.6,0,3.193a3.15,3.15,0,0,1-1.306,2.683c-1.188.907-2.374,1.819-3.6,2.668a1.415,1.415,0,0,0-.694,1.343c.036,2.1.014,4.194.014,6.45.408-.147.714-.247,1.013-.367,3.119-1.254,6.24-2.5,9.351-3.774a2.771,2.771,0,0,1,2.861.289,9.084,9.084,0,0,1,1.865,1.766,12.719,12.719,0,0,1,2.708,7.928,3.3,3.3,0,0,1-2.444,3.531c-.774.308-1.55.612-2.319.933-.561.234-1.115.32-1.374-.36-.265-.7.266-.968.8-1.183.854-.341,1.7-.71,2.563-1.017a1.428,1.428,0,0,0,1.052-1.326,10.451,10.451,0,0,0-3.462-8.725,1.391,1.391,0,0,0-1.582-.337c-3.59,1.464-7.19,2.9-10.869,4.386a13.335,13.335,0,0,1,4.121,10.288c.941-.367,1.857-.721,2.77-1.082.615-.243,1.222-.5,1.838-.742.5-.192,1.007-.23,1.25.35.26.619-.122.956-.668,1.175q-3.8,1.523-7.593,3.059c-.1.042-.2.092-.4.183.144.406.27.8.423,1.188.573,1.442,1.177,2.872,1.716,4.325a1.2,1.2,0,0,1-.036,1.009,1.3,1.3,0,0,1-1.052.245c-1.345-.3-2.677-.661-4-1.044a.944.944,0,0,0-1.306.508c-.642,1.187-1.357,2.338-2.107,3.46a1.45,1.45,0,0,1-.981.64c-.264,0-.634-.445-.774-.771C174,309.442,173.3,307.651,172.539,305.778Zm7.191-25.335c-.443.243-.691.374-.935.514a49.72,49.72,0,0,1-11.727,4.9,5.257,5.257,0,0,1-3.21-.017q-3.368-1.182-6.735-2.368c-.279-.1-.552-.218-.871-.345-.133.907-.159,1.567.686,2.1a1.854,1.854,0,0,1,.752,2.435c-.736,1.2-.176,2.054.239,3.036.122.289.143.625.287.9a1.8,1.8,0,0,0,.63.817c1.2.553,2.424,1.043,3.658,1.511a1.36,1.36,0,0,0,.9.007q7.92-3.152,15.818-6.36a.863.863,0,0,0,.483-.592C179.744,284.863,179.731,282.744,179.731,280.443ZM165.588,306.81c2.852-1.147,5.592-2.247,8.331-3.353,1.477-.6,1.728-.981,1.687-2.583a7.005,7.005,0,0,0-.083-.945,11.187,11.187,0,0,0-3.207-6.532,1.76,1.76,0,0,0-2.182-.409c-1.27.6-2.605,1.062-3.91,1.588-1.557.628-3.112,1.262-4.734,1.92A13.277,13.277,0,0,1,165.588,306.81Zm11.666-4.695c1.61-.649,3.1-1.25,4.586-1.846,2.131-.853,2.453-1.4,2.148-3.688-.038-.284-.093-.567-.158-.847a11.231,11.231,0,0,0-2.845-5.518c-.481-.488-1.041-1.085-1.789-.812-2.036.744-4.035,1.587-6.1,2.413A13.392,13.392,0,0,1,177.255,302.116ZM156.29,279.781c-.268,1.351-.276,1.461.881,1.9,2.44.926,4.9,1.807,7.376,2.623a3.131,3.131,0,0,0,1.845,0c2.584-.861,5.19-1.692,7.686-2.771a45,45,0,0,0,10.446-6.486,1.707,1.707,0,0,0,.752-1.894c-.473.357-.858.651-1.246.94a49.247,49.247,0,0,1-16.831,8.288,6.783,6.783,0,0,1-2.616.2,17.273,17.273,0,0,1-3.228-.906C159.656,281.076,157.979,280.414,156.29,279.781Zm2.125,19.974a11.252,11.252,0,0,0,3.124,7.126,2.338,2.338,0,0,0,1.679.771c.764-.147.751-1.066.747-1.742a11.092,11.092,0,0,0-2.835-7.384c-.5-.574-1.1-1.335-1.93-1.032C158.3,297.823,158.511,298.827,158.416,299.755Zm22.871,2.505-7.218,2.913,1.712,4.24c.728-1.193,1.385-2.23,2-3.292a1.132,1.132,0,0,1,1.5-.6c1.172.353,2.368.626,3.721.977Zm-30.08-21.806c0,2.168,0,4.147,0,6.127a2.993,2.993,0,0,0,2.393,2.464,1.659,1.659,0,0,0-.112-.319c-1-1.638-.815-2.635.7-3.85a.877.877,0,0,0,.3-.552,11.762,11.762,0,0,0,0-1.638.784.784,0,0,0-.265-.562C153.3,281.576,152.336,281.07,151.207,280.454ZM145.6,273.26a1.732,1.732,0,0,0,.709,1.69c1.631,1.174,3.239,2.382,4.9,3.513,1.011.688,2.1,1.259,3.2,1.91.255-1.029.134-1.716-.884-2.078a8.227,8.227,0,0,1-1.654-.917C149.805,276.036,147.753,274.677,145.6,273.26Zm9.734,16.214a5.53,5.53,0,0,0-1.369,3.354,1.326,1.326,0,0,0,1.214,1.421,1.312,1.312,0,0,0,1.522-1.075A4.931,4.931,0,0,0,155.33,289.474Zm10.135-18.107a10.9,10.9,0,0,0,1.641-.6c.524-.292.5-.72.012-1.093a3.251,3.251,0,0,0-3.339.03c-.444.357-.48.763.009,1.032A12.078,12.078,0,0,0,165.465,271.367Zm-10.152,14.518c-.377.558-.731.858-.772,1.2a.68.68,0,0,0,.864.776,1.18,1.18,0,0,0,.725-.834C156.147,286.736,155.722,286.421,155.314,285.885Z" fill="#00993e"/>
  </g>
</svg>
