<svg xmlns="http://www.w3.org/2000/svg" width="86.755" height="52.253" viewBox="0 0 86.755 52.253">
  <g id="gift-voucher" transform="translate(-1.75 -15.75)">
    <path id="Trazado_5721" data-name="Trazado 5721" d="M87.023,67.753H3.232A1.232,1.232,0,0,1,2,66.521V53.952a1.232,1.232,0,0,1,.986-1.208,11.09,11.09,0,0,0,0-21.736A1.232,1.232,0,0,1,2,29.8V17.232A1.232,1.232,0,0,1,3.232,16H87.023a1.232,1.232,0,0,1,1.232,1.232V29.8a1.232,1.232,0,0,1-.986,1.208,11.09,11.09,0,0,0,0,21.736,1.232,1.232,0,0,1,.986,1.208V66.521A1.232,1.232,0,0,1,87.023,67.753ZM4.464,65.289H85.791V54.92a13.554,13.554,0,0,1,0-26.086V18.464H4.464V28.834a13.554,13.554,0,0,1,0,26.086Z" fill="#00993e" stroke="#00993e" stroke-width="0.5"/>
    <path id="Trazado_5722" data-name="Trazado 5722" d="M52.232,22.945A1.232,1.232,0,0,1,51,21.713v-4.48a1.232,1.232,0,1,1,2.464,0v4.48A1.232,1.232,0,0,1,52.232,22.945Z" transform="translate(11.379)" fill="#00993e" stroke="#00993e" stroke-width="0.5"/>
    <path id="Trazado_5723" data-name="Trazado 5723" d="M52.232,32.036A1.232,1.232,0,0,1,51,30.8v-4.48a1.232,1.232,0,1,1,2.464,0V30.8A1.232,1.232,0,0,1,52.232,32.036Z" transform="translate(11.379 2.111)" fill="#00993e" stroke="#00993e" stroke-width="0.5"/>
    <path id="Trazado_5724" data-name="Trazado 5724" d="M52.232,41.127A1.232,1.232,0,0,1,51,39.895v-4.48a1.232,1.232,0,1,1,2.464,0V39.9A1.232,1.232,0,0,1,52.232,41.127Z" transform="translate(11.379 4.222)" fill="#00993e" stroke="#00993e" stroke-width="0.5"/>
    <path id="Trazado_5725" data-name="Trazado 5725" d="M52.232,50.218A1.232,1.232,0,0,1,51,48.986v-4.48a1.232,1.232,0,0,1,2.464,0v4.48A1.232,1.232,0,0,1,52.232,50.218Z" transform="translate(11.379 6.333)" fill="#00993e" stroke="#00993e" stroke-width="0.5"/>
    <path id="Trazado_5726" data-name="Trazado 5726" d="M52.232,59.309A1.232,1.232,0,0,1,51,58.077V53.6a1.232,1.232,0,1,1,2.464,0v4.48A1.232,1.232,0,0,1,52.232,59.309Z" transform="translate(11.379 8.444)" fill="#00993e" stroke="#00993e" stroke-width="0.5"/>
    <path id="Trazado_5727" data-name="Trazado 5727" d="M21.161,52.312a1.232,1.232,0,0,1-.871-2.1L43.125,27.361A1.232,1.232,0,1,1,44.868,29.1L22.032,51.952a1.232,1.232,0,0,1-.871.36Z" transform="translate(4.163 2.554)" fill="#00993e" stroke="#00993e" stroke-width="0.5"/>
    <path id="Trazado_5728" data-name="Trazado 5728" d="M37.454,50.164a5.692,5.692,0,1,1,5.692-5.692A5.692,5.692,0,0,1,37.454,50.164Zm0-8.92a3.227,3.227,0,1,0,3.227,3.228A3.227,3.227,0,0,0,37.454,41.244Z" transform="translate(6.911 5.29)" fill="#00993e" stroke="#00993e" stroke-width="0.5"/>
    <path id="Trazado_5729" data-name="Trazado 5729" d="M24.692,37.3a5.692,5.692,0,1,1,5.692-5.692A5.692,5.692,0,0,1,24.692,37.3Zm0-8.92a3.227,3.227,0,1,0,3.227,3.227,3.227,3.227,0,0,0-3.227-3.227Z" transform="translate(3.948 2.303)" fill="#00993e" stroke="#00993e" stroke-width="0.5"/>
  </g>
</svg>
