<svg xmlns="http://www.w3.org/2000/svg" width="45.949" height="105.862" viewBox="0 0 45.949 105.862">
  <g id="charity" transform="translate(0.5 -22.276)">
    <path id="Trazado_5767" data-name="Trazado 5767" d="M39.206,199.823c3.264-3.957,5.132-9.734,5.551-17.175.315-5.606.214-11.29.116-16.787-.026-1.411-.051-2.823-.069-4.234a6.163,6.163,0,0,0-6.14-6.056h-.151a6.112,6.112,0,0,0-1.864.29v-3.109a6.147,6.147,0,0,0-6.14-6.14h-.122a6.089,6.089,0,0,0-2.6.585,6.147,6.147,0,0,0-5.406-3.23h-.121a6.144,6.144,0,0,0-6.135,6.021,6.138,6.138,0,0,0-8.011,5.848v9.215A6.2,6.2,0,0,0,0,171.045v8.41a27.354,27.354,0,0,0,1.219,8.108,27.074,27.074,0,0,0,8.524,12.768l.032.027c.147.121.289.237.426.345a3.39,3.39,0,0,1,1.289,2.682v5.665a3.566,3.566,0,0,0-3.378,3.555v4.987a4.313,4.313,0,0,0-2.2,3.754v9.682a2.139,2.139,0,0,0,4.277,0v-9.682a.036.036,0,0,1,.036-.036H39.914v23.243H10.192V241.02a2.138,2.138,0,1,0-4.276,0v5.673a2.138,2.138,0,0,0,2.138,2.138h34a2.139,2.139,0,0,0,2.139-2.138V220.165a3.137,3.137,0,0,0-2.2-2.988v-4.571a3.568,3.568,0,0,0-3.565-3.564h-.043v-6.991a3.511,3.511,0,0,1,.82-2.227Zm-1.489,17.21H12.39v-3.716H37.717ZM35.907,197.1a7.8,7.8,0,0,0-1.8,4.949v6.991H15.767v-5.656a7.647,7.647,0,0,0-2.916-6.04c-.108-.085-.219-.175-.333-.268A22.618,22.618,0,0,1,5.3,186.3a23.053,23.053,0,0,1-1.026-6.841v-8.41a1.984,1.984,0,0,1,1.845-2.013,1.917,1.917,0,0,1,1.989,1.915v9.631a5.173,5.173,0,0,0,2.844,4.628,18.866,18.866,0,0,1,6.065,4.7,2.139,2.139,0,1,0,3.368-2.637,22.714,22.714,0,0,0-7.492-5.874.917.917,0,0,1-.506-.817v-24.74a1.863,1.863,0,0,1,3.726,0v17.88a2.139,2.139,0,1,0,4.277,0V150.109a1.866,1.866,0,0,1,1.864-1.863h.122a1.865,1.865,0,0,1,1.863,1.863v23.61a2.139,2.139,0,0,0,4.277,0V152.754a1.865,1.865,0,0,1,1.863-1.863h.122a1.866,1.866,0,0,1,1.864,1.863v20.964a2.139,2.139,0,1,0,4.277,0V161.712a1.865,1.865,0,0,1,1.863-1.863h.152a1.867,1.867,0,0,1,1.862,1.835c.019,1.418.045,2.836.069,4.254.1,5.419.2,11.023-.109,16.47-.366,6.511-1.908,11.454-4.579,14.693Zm0,0" transform="translate(0 -121.192)" fill="#00993e" stroke="#fff" stroke-width="1"/>
  </g>
</svg>
