<svg xmlns="http://www.w3.org/2000/svg" width="50.789" height="46.568" viewBox="0 0 50.789 46.568">
  <g id="Grupo_5119" data-name="Grupo 5119" transform="translate(0.24 0.279)">
    <g id="Grupo_2076" data-name="Grupo 2076" transform="translate(0)">
      <path id="Trazado_245" data-name="Trazado 245" d="M1693.354,859.855c-.529.393-.851.621-1.16.864q-7.168,5.633-14.333,11.268c-2.187,1.718-3.853,1.72-6.029.014q-5.3-4.156-10.591-8.325c-.391-.308-.746-.663-1.177-1.049-.675.39-1.4.748-2.061,1.2a3.109,3.109,0,0,0-.644,3.967c1.787,3.215,3.62,6.408,5.542,9.544a3.117,3.117,0,0,0,4.555,1.044c4.09-2.361,6.343-1.9,9.054,2.016,1.419,2.047,2.866,4.106,3.376,6.628a3.122,3.122,0,0,1-1.71,3.893c-5.7,3.317-12.446,2.715-17.889-1.59a25.34,25.34,0,0,1-6.157-7.19c-1.807-3.088-3.627-6.17-5.38-9.288-2.565-4.559-3.99-9.389-3-14.664a14.556,14.556,0,0,1,7.961-10.624,2.738,2.738,0,0,1,3.368.514,24.956,24.956,0,0,1,2.865,3.5,14.946,14.946,0,0,1,1.5,2.867,1.391,1.391,0,0,0,1.544.939q14.131-.037,28.263-.013a12.165,12.165,0,0,1,1.617.065,3.087,3.087,0,0,1,2.863,3.136q.043,10.89,0,21.78a3.175,3.175,0,0,1-3.372,3.188c-3.612.056-7.226.022-10.839.018-.814,0-1.442-.345-1.427-1.219s.67-1.167,1.475-1.167q5.065,0,10.13,0c1.5,0,1.665-.176,1.665-1.7q0-9.168,0-18.336Zm-45.527.923a21.775,21.775,0,0,0,3.108,11.081c1.788,3.1,3.566,6.2,5.394,9.276a20.941,20.941,0,0,0,6.874,7.309,12.731,12.731,0,0,0,13.631.519,1.158,1.158,0,0,0,.691-1.548,17.949,17.949,0,0,0-4.638-7.488,2.114,2.114,0,0,0-2.864-.258c-.506.333-1.054.6-1.582.9a5.5,5.5,0,0,1-7.471-1.783c-2.022-3.271-3.938-6.611-5.79-9.981a5.448,5.448,0,0,1,2.3-7.47c.489-.224.924-.562,1.409-.8a2.077,2.077,0,0,0,1.242-2.586,17.654,17.654,0,0,0-4.34-7.885,1.021,1.021,0,0,0-1.434-.136A12.388,12.388,0,0,0,1647.827,860.778Zm44.062-2.939h-29.1l-.82,3.372c3.718,2.923,7.509,5.909,11.306,8.887,1.3,1.021,1.814,1.02,3.128-.01q7.372-5.783,14.734-11.579C1691.338,858.345,1691.527,858.16,1691.889,857.838Z" transform="translate(-1645.433 -847.207)" fill="#00993e" stroke="#fff" stroke-width="0.5"/>
    </g>
  </g>
</svg>
