<svg xmlns="http://www.w3.org/2000/svg" width="59.408" height="59.407" viewBox="0 0 59.408 59.407">
  <g id="Outline" transform="translate(0 0)">
    <path id="Trazado_5417" data-name="Trazado 5417" d="M5.287,5.287a1.022,1.022,0,0,0-.208.327,1.024,1.024,0,0,0,.208,1.079A.994.994,0,1,0,6.693,5.287,1.037,1.037,0,0,0,5.287,5.287Z" transform="translate(-2.03 -2.03)" fill="#fff"/>
    <path id="Trazado_5418" data-name="Trazado 5418" d="M8.614,5.079a.924.924,0,0,0-.327.208,1,1,0,0,0,0,1.406.99.99,0,0,0,1.693-.7,1.042,1.042,0,0,0-.287-.7A1.007,1.007,0,0,0,8.614,5.079Z" transform="translate(-2.059 -2.03)" fill="#fff"/>
    <path id="Trazado_5419" data-name="Trazado 5419" d="M11.614,5.079a1.022,1.022,0,0,0-.327.208,1,1,0,0,0,0,1.406,1.144,1.144,0,0,0,.327.208.99.99,0,0,0,.376.079.98.98,0,0,0,.99-.99,1.042,1.042,0,0,0-.287-.7A1.027,1.027,0,0,0,11.614,5.079Z" transform="translate(-2.089 -2.03)" fill="#fff"/>
    <rect id="Rectángulo_1623" data-name="Rectángulo 1623" width="13.932" height="2.533" transform="translate(12.665 16.345)" fill="#fff"/>
    <rect id="Rectángulo_1624" data-name="Rectángulo 1624" width="13.932" height="2.533" transform="translate(12.665 22.677)" fill="#fff"/>
    <rect id="Rectángulo_1625" data-name="Rectángulo 1625" width="18.998" height="1.267" transform="translate(12.665 29.01)" fill="#fff"/>
    <rect id="Rectángulo_1626" data-name="Rectángulo 1626" width="12.666" height="2.533" transform="translate(12.665 34.076)" fill="#fff"/>
    <rect id="Rectángulo_1627" data-name="Rectángulo 1627" width="7.599" height="2.533" transform="translate(12.665 40.409)" fill="#fff"/>
    <rect id="Rectángulo_1628" data-name="Rectángulo 1628" width="6.333" height="1.267" transform="translate(12.665 46.742)" fill="#fff"/>
    <path id="Trazado_5420" data-name="Trazado 5420" d="M57.616,13.881a3.762,3.762,0,0,0-2.68,1.111l-3.43,3.43V4.97A2.97,2.97,0,0,0,48.536,2H4.97A2.97,2.97,0,0,0,2,4.97V58.437a2.97,2.97,0,0,0,2.97,2.97H48.536a2.97,2.97,0,0,0,2.97-2.97V29.143l8.79-8.79a3.79,3.79,0,0,0-2.68-6.471ZM3.98,4.97a.99.99,0,0,1,.99-.99H48.536a.99.99,0,0,1,.99.99v2.97H3.98ZM49.526,58.437a.99.99,0,0,1-.99.99H4.97a.99.99,0,0,1-.99-.99V9.921H49.526V20.4l-5.941,5.941v-2.97L33.1,12.891H9.921V56.457H43.585V37.064l5.941-5.941Zm-23.638-14.4-2.68,8.041,8.041-2.68,2.846-2.846L41.6,39.045V54.477H11.9v-39.6H31.7v9.9h9.9v3.551L28.733,41.2ZM28.733,44l2.56,2.56L30.179,47.67l-3.841,1.28,1.28-3.841Zm4.951-27.723L40.2,22.793H33.684Zm-.99,28.884-2.56-2.56L53.486,19.242l2.56,2.56Zm26.2-26.2-1.45,1.45-2.56-2.56,1.45-1.45A1.811,1.811,0,1,1,58.9,18.953Z" transform="translate(-2 -2)" fill="#fff"/>
  </g>
</svg>
