<svg xmlns="http://www.w3.org/2000/svg" width="50.837" height="53.941" viewBox="0 0 50.837 53.941">
  <g id="Grupo_5370" data-name="Grupo 5370" transform="translate(-48.369 -34.066)">
    <g id="Grupo_5369" data-name="Grupo 5369" transform="translate(48.369 34.066)">
      <path id="Trazado_5848" data-name="Trazado 5848" d="M96.4,74.521a3.289,3.289,0,0,0-.234-.623c.235-.457.559-1.126.763-1.511a25.442,25.442,0,0,0-2.511-25.376l-.09-.126.09-.125a2.915,2.915,0,0,0-3.865-4.205l-.134.084-.12-.1a25.217,25.217,0,0,0-13.458-5.91l-.158-.019-.029-.156a2.915,2.915,0,0,0-5.733,0l-.029.156-.158.019a25.325,25.325,0,0,0-5.371,1.246.605.605,0,1,0,.4,1.142,24.118,24.118,0,0,1,5.052-1.179l.171-.021.058.161a2.916,2.916,0,0,0,5.485,0l.058-.161.171.021A24.026,24.026,0,0,1,89.443,43.4l.132.113-.083.154a2.914,2.914,0,0,0,3.735,4.058l.16-.071.1.142a24.231,24.231,0,0,1,2.252,24.282l-.4.779a3.592,3.592,0,0,0-.933-.571c-.474-.195-5.305-1.461-5.458-1.566a.445.445,0,0,1-.181-.4A8.644,8.644,0,0,0,92.582,68.5a9.811,9.811,0,0,0,3.042-7.891,9.72,9.72,0,0,0-.919-4.537.5.5,0,0,0-.9.423,8.734,8.734,0,0,1,.824,4.1,10.958,10.958,0,0,1-.812,4.583A7.012,7.012,0,0,1,88.771,69.3v-.007a6.589,6.589,0,0,0,3.523-5.513v-.007c.007-.089.008-.4.008-.41a2.045,2.045,0,0,0,0-4.079v-.172a1.49,1.49,0,0,0-1.352-1.478,4.007,4.007,0,0,1-2.565-1.3,1.251,1.251,0,0,0-1.7-.1,10.8,10.8,0,0,1-4.521,2.044,1.557,1.557,0,0,0-.476.169.533.533,0,0,0-.266.478,12.375,12.375,0,0,1-.193,2.46,2.76,2.76,0,0,0-1-.4,3.24,3.24,0,0,0-1.39-2.95h0c-.065-.047-.134-.092-.149-.1a1.193,1.193,0,0,1-.464-1.8,12.248,12.248,0,0,0,.823-1.249,3.073,3.073,0,0,1,1.915,1.784.536.536,0,0,0,.978-.437,4.167,4.167,0,0,0-2.292-2.269A8.764,8.764,0,0,1,85.8,51.429h.03a8.785,8.785,0,0,1,6.8,3.209.5.5,0,1,0,.767-.632,9.776,9.776,0,0,0-7.567-3.571H85.8a9.755,9.755,0,0,0-7.078,3.047,8.82,8.82,0,0,0-11.062-.148,9.654,9.654,0,0,0-3.028-1.768,3.35,3.35,0,0,0-6.655,0,9.624,9.624,0,0,0-3.137,1.864,7.733,7.733,0,0,0-2.693,5.784,10.77,10.77,0,0,0,1.516,6.208,6.539,6.539,0,0,0,3.9,2.616c.2.139.417.269.634.388a2.159,2.159,0,0,1-1.7,1.95A48.981,48.981,0,0,0,51.8,72a24.233,24.233,0,0,1,2.283-24.212l.1-.142.16.071a2.878,2.878,0,0,0,1.167.247,2.914,2.914,0,0,0,2.567-4.305L58,43.509l.134-.113a24.333,24.333,0,0,1,4.319-2.93.6.6,0,1,0-.567-1.069,25.483,25.483,0,0,0-4.607,3.139l-.168.067-.133-.076a2.915,2.915,0,0,0-3.819,4.233l.09.125-.09.126a25.438,25.438,0,0,0-2.51,25.376l.083.179a4.484,4.484,0,0,0-1.935,3.7v1.26a.519.519,0,0,0,1.039,0v-1.26a3.453,3.453,0,0,1,1.9-3.094c.486-.247.984-.476,1.49-.685a1.277,1.277,0,0,0,.3.593,1.465,1.465,0,0,0,1.217.477,1.537,1.537,0,0,0,.725,1.263,1.631,1.631,0,0,0,1.524.108,1.757,1.757,0,0,0,1.164,1.1,1.844,1.844,0,0,0,1.65-.355,1.832,1.832,0,0,0,1.488.794h.029a1.756,1.756,0,0,0,.786-.19c-.054.081-.107.165-.158.255-.4.724-.355.765-1.479,6.485H53.8V79.575a.519.519,0,0,0-1.039,0v3.449H49.985a.152.152,0,0,1-.152-.152V79.937a.519.519,0,0,0-1.039,0v2.935a1.193,1.193,0,0,0,1.191,1.191H60.259c-.087.442-.181.913-.281,1.415,0,.01,0,.02-.005.029a1.976,1.976,0,0,0,1.789,2.48c.33.037-.436.014,14.533.02a.536.536,0,0,0,0-1.071H65.92V81.888a.536.536,0,1,0-1.071,0v5.048c-2.817,0-2.75.011-2.968-.014-.619-.069-.964-.4-.849-1.25,1.727-8.617,1.533-7.908,1.75-8.424a2.431,2.431,0,0,1,.972-1.071h0c.6-.348.56-.207,2.931-.941l1.106,1.829a.536.536,0,0,0,.917-.554l-.957-1.584.48-.139,2,3.307a1.174,1.174,0,0,0,1.716.325l1.182-.9,1.182.9a1.173,1.173,0,0,0,.712.241,1.191,1.191,0,0,0,.218-.02,1.175,1.175,0,0,0,.785-.546l2-3.3.517.149-1.953,3.193a4.043,4.043,0,0,1-6.59.435.536.536,0,1,0-.836.67,5.114,5.114,0,0,0,8.34-.546L79.6,75.252a12.449,12.449,0,0,1,2.887.931h0l.009,0h0a2.759,2.759,0,0,1,.378.281l-.008-.007a2.208,2.208,0,0,1,.5.619l.082.16a2.843,2.843,0,0,1,.2.615c1.671,8.418,1.578,7.819,1.575,8.1-.01,1.214-.845.971-3.817.976V81.888a.536.536,0,1,0-1.071,0v5.048h-1.5a.536.536,0,1,0,0,1.071c5.574-.007,5.315.015,5.638-.02a1.915,1.915,0,0,0,1.82-2.106c0-.1-.109-.688-.266-1.514h2.819a.5.5,0,1,0,0-.994h-3.01c-.062-.322-.128-.657-.2-1a.584.584,0,0,0,.191.034.6.6,0,1,0-.39-1.044c-.378-1.908-.743-3.715-.763-3.8a3.568,3.568,0,0,0-.37-.991h0a3.629,3.629,0,0,0-1.928-1.624c-.206-.077-4.37-1.267-4.378-1.27l-.678-.447c.038-.016.072-.033.113-.049l.349-.1,3.643-1.017,1.163,1.426.042.051.009.011.409.5a3.572,3.572,0,0,0,2.778,1.319,4.049,4.049,0,0,0,3.262-1.912l1.059-1.3.011-.013.023-.028c3.384.944,4.029,1.029,4.6,1.556h0a2.081,2.081,0,0,1,.208.217l.02.025c.533.66.37.684,1.913,8.282a1.162,1.162,0,0,1-.185.911c-.393.425-1.192.205-3.34.265V78.686a.5.5,0,1,0-.994,0v4.685H91.165a.5.5,0,1,0,0,.994H95.89a1.833,1.833,0,0,0,2.04-2.066C97.912,81.972,96.422,74.6,96.4,74.521ZM73.787,38.688a1.705,1.705,0,1,1,1.705-1.705A1.707,1.707,0,0,1,73.787,38.688ZM92.908,46.53a1.707,1.707,0,0,1-2.33-.625,1.7,1.7,0,0,1,1.474-2.558,1.705,1.705,0,0,1,.856,3.182ZM92.3,60.3a1.027,1.027,0,0,1,0,2.039ZM54.042,44.2a1.707,1.707,0,1,1-.17,1.294A1.7,1.7,0,0,1,54.042,44.2ZM82.117,62.419a15.092,15.092,0,0,0,.373-3.2,11.608,11.608,0,0,0,4.826-2.229.251.251,0,0,1,.346.018,4.987,4.987,0,0,0,3.2,1.61.489.489,0,0,1,.442.487v.624c0,3.976,0,3.7,0,3.779A5.6,5.6,0,0,1,80.7,65.931a5.911,5.911,0,0,1-.263-.6A2.2,2.2,0,0,0,82.117,62.419ZM80.9,67.946l.029.031A6.643,6.643,0,0,0,82.49,69.2a7.4,7.4,0,0,1-2.679-1.366,7.122,7.122,0,0,0,.271-.966A6.435,6.435,0,0,0,80.9,67.946Zm-.669-5.867a1.107,1.107,0,0,1,0,2.2ZM78.1,54.364a7.979,7.979,0,0,1-.487.766l-.006.008c-.085.121-.158.221-.264.369a2.241,2.241,0,0,0,.577,3.2.6.6,0,0,0,.065.045c.1.056.194.124.222.144a2.113,2.113,0,0,1,.944,1.6h0c0,.034,0,.631,0,4.385a6.989,6.989,0,0,1-.368,2.659.794.794,0,0,0-.519-.693,4.525,4.525,0,0,1-1.578-.946c-.963-.962-2.434-1.616-3.564-.962-1.129-.654-2.6,0-3.564.962a4.527,4.527,0,0,1-1.578.946.793.793,0,0,0-.519.694c-.513-1.4-.368-2.3-.368-7.033,0-.022,0-.02,0,0a2.2,2.2,0,0,1,.947-1.618c.152-.109.223-.139.283-.188a2.241,2.241,0,0,0,.577-3.2,11.2,11.2,0,0,1-.757-1.143A7.663,7.663,0,0,1,78.1,54.364ZM68.4,69.218a5.817,5.817,0,0,1-.635-.985,5.049,5.049,0,0,0,2.579.743,4.732,4.732,0,0,0,2.781-.936,4.731,4.731,0,0,0,2.781.936,5.17,5.17,0,0,0,2.578-.742A6.035,6.035,0,0,1,68.4,69.218Zm.812,2.176c-1.294-.47-2.7-.93-3.1-1.02a2.16,2.16,0,0,1-1.7-1.95c.218-.119.43-.248.635-.388a7.563,7.563,0,0,0,1.316-.488A7.038,7.038,0,0,0,69.214,71.393Zm.153,1.091c.138.057.271.122.406.185l-.761.5a1.178,1.178,0,0,0,.11-.138A1.533,1.533,0,0,0,69.368,72.484Zm-.442-4.866a5.076,5.076,0,0,0,1.395-.952c.59-.59,1.707-1.258,2.392-.708a.536.536,0,0,0,.829,0c.685-.55,1.8.118,2.392.708a5.074,5.074,0,0,0,1.394.952A3.552,3.552,0,0,1,73.542,67a.535.535,0,0,0-.415-.2h0a.535.535,0,0,0-.414.2A3.551,3.551,0,0,1,68.926,67.619Zm-1.364-9.687a3.245,3.245,0,0,0-1.531,2.486c0,.055,0,.041,0,.1v.458a2.747,2.747,0,0,0-1.056.432c-.41-2.393-.194-4.252.637-5.408A2.932,2.932,0,0,1,67.2,54.863a11.777,11.777,0,0,0,.832,1.265A1.2,1.2,0,0,1,67.562,57.932Zm-1.535,4.148v2.2A1.107,1.107,0,0,1,66.027,62.079ZM61.3,49.644A2.318,2.318,0,0,1,63.5,51.226a10.759,10.759,0,0,0-2.177-.288h-.032a10.769,10.769,0,0,0-2.177.288A2.318,2.318,0,0,1,61.3,49.644ZM53.19,59.716c0-.165-.006-.333-.006-.5A6.705,6.705,0,0,1,55.53,54.2,8.566,8.566,0,0,1,66.7,53.9a4.032,4.032,0,0,0-1.941,1.451,5.414,5.414,0,0,0-.909,2.17c-1.685-.492-2.015-1.5-2.042-1.6a.508.508,0,0,0-.509-.4.52.52,0,0,0-.505.4c0,.019-.545,1.858-4.15,1.858a1.813,1.813,0,0,0-1.576.914h-.162A1.962,1.962,0,0,0,53.19,59.716Zm9.722,2.413c0-.2.392-.5,1-.56.048.283.1.57.167.866a.521.521,0,0,0,.023.072c-.023.063-.04.127-.056.19C63.362,62.671,62.912,62.348,62.912,62.129Zm-8.072.134a.923.923,0,0,1-.855-.919v-.682a.922.922,0,0,1,.85-.919Zm-.323,2.569a6.723,6.723,0,0,1-.914-2.026,1.95,1.95,0,0,0,1.241.5,5.532,5.532,0,0,0,.763,2.681A5.038,5.038,0,0,1,54.517,64.832Zm3.3,2.107a4.726,4.726,0,0,1-1.939-3.776l-.007-3.573a.775.775,0,0,1,.771-.765c2.738,0,4.047-.953,4.658-1.718a4.466,4.466,0,0,0,2.417,1.441,11.557,11.557,0,0,0,.051,1.994,2.629,2.629,0,0,0-1.278.468,1.608,1.608,0,0,0-2.38,0,2.666,2.666,0,0,0-1.391-.484s-.229-.122-1.039.088a1.772,1.772,0,0,0-1.471,1.515c0,.9.993,1.612,2.261,1.612s2.26-.708,2.26-1.612c0-.012,0-.024,0-.036h0a.571.571,0,1,1,1.142,0h0c0,.012,0,.024,0,.036,0,.889.96,1.587,2.2,1.61a2.452,2.452,0,0,0,1.957,1.636c0,.052,0,.1.006.155a5.242,5.242,0,0,1-1.249,1.41A6.119,6.119,0,0,1,61.3,68.255,6.121,6.121,0,0,1,57.82,66.939Zm1.873-4.81c0,.229-.487.574-1.222.574s-1.222-.345-1.222-.574.487-.573,1.222-.573S59.693,61.9,59.693,62.129Zm-.509,6.747a5.573,5.573,0,0,0,4.238,0,3.187,3.187,0,0,0,2.272,2.463l-.235.155A6.48,6.48,0,0,1,61.3,72.707a6.626,6.626,0,0,1-4-1.185c-.11-.069-.219-.137-.328-.2A3.187,3.187,0,0,0,59.183,68.876Zm2.131,6.56h-.028a.819.819,0,0,1-.78-.695.6.6,0,0,0-1.133-.163.823.823,0,0,1-.932.461l-.012,0a.744.744,0,0,1-.5-.812.6.6,0,0,0-1.045-.465.687.687,0,0,1-.861.191l-.039-.024a.67.67,0,0,1-.154-.8.6.6,0,0,0-.9-.71A.467.467,0,0,1,54.3,72.4l-.011-.012a.4.4,0,0,1-.061-.278q.285-.1.571-.194c.784-.244,1.2.018,1.958.491a7.623,7.623,0,0,0,4.55,1.343,7.471,7.471,0,0,0,4.731-1.387c.682-.453,1.025-.681,1.77-.449q.284.091.566.192a.566.566,0,0,1-.094.331l-.01.014c-.06.088-.311.153-.6-.034a.6.6,0,0,0-.89.717.615.615,0,0,1-1.058.627.6.6,0,0,0-1.045.465.789.789,0,0,1-.108.5c-.309.1-.584.2-.83.3a.863.863,0,0,1-.507-.444.6.6,0,0,0-1.133.163A.819.819,0,0,1,61.314,75.435Zm6.519-1.648a1.684,1.684,0,0,0,.035-.224,1.458,1.458,0,0,0,.672-.08l-.273.18Zm3.38,3.8c-.093-.018.035.087-2.01-3.26l1.025-.676,2.164,3.079C71.265,77.569,71.3,77.606,71.214,77.589Zm-.329-4.867V72.21a7.13,7.13,0,0,0,4.466.006v.533l-2.223,3.163Zm4.224,4.819a.1.1,0,0,1-.149.028l-1.1-.839,2.164-3.079,1.025.676ZM76.421,72.6v-.834a7.132,7.132,0,0,0,2.977-2.99,8.68,8.68,0,0,0,3.239,1.492.5.5,0,0,1-.129.409C82.241,70.928,77.832,71.827,76.421,72.6Zm7.6,1.04h3.616A2.593,2.593,0,0,1,84.022,73.637Zm4.449-.994H83.189l-.715-.877a1.546,1.546,0,0,0,.574-.254,1.414,1.414,0,0,0,.571-.965c.021-.167.008-.239.012-.845a6.679,6.679,0,0,0,2.161.336,6.218,6.218,0,0,0,1.985-.331c.037.47-.168,1.185.512,1.75a1.4,1.4,0,0,0,.519.273h0l.332.092Z" transform="translate(-48.369 -34.066)" fill="#00993e"/>
      <path id="Trazado_5849" data-name="Trazado 5849" d="M171.766,184.879a.6.6,0,1,0-.6-.6A.6.6,0,0,0,171.766,184.879Z" transform="translate(-134.305 -138.77)" fill="#00993e"/>
      <circle id="Elipse_355" data-name="Elipse 355" cx="0.596" cy="0.596" r="0.596" transform="translate(36.865 42.686)" fill="#00993e"/>
      <path id="Trazado_5850" data-name="Trazado 5850" d="M135.488,196.543h0Z" transform="translate(-109.334 -147.766)" fill="#00993e"/>
      <path id="Trazado_5851" data-name="Trazado 5851" d="M129.405,194.426a.642.642,0,1,0,.642.642A.642.642,0,0,0,129.405,194.426Z" transform="translate(-104.629 -146.285)" fill="#00993e"/>
      <path id="Trazado_5852" data-name="Trazado 5852" d="M129.405,202.43a.642.642,0,1,0,.642.642A.642.642,0,0,0,129.405,202.43Z" transform="translate(-104.629 -151.887)" fill="#00993e"/>
    </g>
  </g>
</svg>
