<svg id="image-gallery" xmlns="http://www.w3.org/2000/svg" width="162.643" height="149.088" viewBox="0 0 162.643 149.088">
  <g id="Grupo_5328" data-name="Grupo 5328" transform="translate(0 52.188)">
    <path id="Trazado_5501" data-name="Trazado 5501" d="M118.271,106.6a13.518,13.518,0,0,1-3.456-.447L10.027,78.091a13.677,13.677,0,0,1-9.582-16.6l13.221-49.28a3.388,3.388,0,0,1,6.546,1.748L7,63.223a6.877,6.877,0,0,0,4.811,8.329L116.557,99.6A6.746,6.746,0,0,0,124.8,94.83L130.1,75.218a3.39,3.39,0,1,1,6.546,1.762l-5.286,19.585A13.535,13.535,0,0,1,118.271,106.6Z" transform="translate(0 -9.701)" fill="#00993e"/>
  </g>
  <g id="Grupo_5329" data-name="Grupo 5329" transform="translate(27.104 0)">
    <path id="Trazado_5502" data-name="Trazado 5502" d="M125.981,110.427H17.553A13.567,13.567,0,0,1,4,96.874V15.553A13.567,13.567,0,0,1,17.553,2H125.981a13.567,13.567,0,0,1,13.553,13.553V96.874A13.567,13.567,0,0,1,125.981,110.427ZM17.553,8.777a6.788,6.788,0,0,0-6.777,6.777V96.874a6.788,6.788,0,0,0,6.777,6.777H125.981a6.788,6.788,0,0,0,6.777-6.777V15.553a6.788,6.788,0,0,0-6.777-6.777Z" transform="translate(-4 -2)" fill="#00993e"/>
  </g>
  <g id="Grupo_5330" data-name="Grupo 5330" transform="translate(47.434 20.33)">
    <path id="Trazado_5503" data-name="Trazado 5503" d="M20.553,32.107A13.553,13.553,0,1,1,34.107,18.553,13.567,13.567,0,0,1,20.553,32.107Zm0-20.33a6.777,6.777,0,1,0,6.777,6.777A6.788,6.788,0,0,0,20.553,11.777Z" transform="translate(-7 -5)" fill="#00993e"/>
  </g>
  <g id="Grupo_5331" data-name="Grupo 5331" transform="translate(27.576 37.611)">
    <path id="Trazado_5504" data-name="Trazado 5504" d="M7.46,71.116a3.385,3.385,0,0,1-2.4-5.781L37.067,33.329a10.415,10.415,0,0,1,14.373,0l9.528,9.528L87.344,11.209A10.181,10.181,0,0,1,95.083,7.55h.075a10.159,10.159,0,0,1,7.719,3.544l35.442,41.352a3.388,3.388,0,1,1-5.144,4.412L97.732,15.506a3.352,3.352,0,0,0-2.575-1.179,3.6,3.6,0,0,0-2.6,1.22L63.8,50.047a3.375,3.375,0,0,1-2.453,1.213A3.262,3.262,0,0,1,58.8,50.27L46.649,38.12a3.481,3.481,0,0,0-4.791,0L9.852,70.126a3.376,3.376,0,0,1-2.392.989Z" transform="translate(-4.07 -7.55)" fill="#00993e"/>
  </g>
</svg>
