<svg xmlns="http://www.w3.org/2000/svg" xmlns:xlink="http://www.w3.org/1999/xlink" width="400.748" height="109.33" viewBox="0 0 400.748 109.33"><defs><style>.a{fill:#fff;}.b{filter:url(#ae);}.c{filter:url(#ac);}.d{filter:url(#aa);}.e{filter:url(#y);}.f{filter:url(#w);}.g{filter:url(#u);}.h{filter:url(#s);}.i{filter:url(#q);}.j{filter:url(#o);}.k{filter:url(#m);}.l{filter:url(#k);}.m{filter:url(#i);}.n{filter:url(#g);}.o{filter:url(#e);}.p{filter:url(#c);}.q{filter:url(#a);}</style><filter id="a" x="77.066" y="38.55" width="55.946" height="61.185" filterUnits="userSpaceOnUse"><feOffset dy="3" input="SourceAlpha"/><feGaussianBlur stdDeviation="3" result="b"/><feFlood flood-opacity="0.161"/><feComposite operator="in" in2="b"/><feComposite in="SourceGraphic"/></filter><filter id="c" x="118.246" y="50.164" width="51.531" height="49.572" filterUnits="userSpaceOnUse"><feOffset dy="3" input="SourceAlpha"/><feGaussianBlur stdDeviation="3" result="d"/><feFlood flood-opacity="0.161"/><feComposite operator="in" in2="d"/><feComposite in="SourceGraphic"/></filter><filter id="e" x="155.01" y="37.727" width="36.41" height="62.008" filterUnits="userSpaceOnUse"><feOffset dy="3" input="SourceAlpha"/><feGaussianBlur stdDeviation="3" result="f"/><feFlood flood-opacity="0.161"/><feComposite operator="in" in2="f"/><feComposite in="SourceGraphic"/></filter><filter id="g" x="176.654" y="56.753" width="41.052" height="52.577" filterUnits="userSpaceOnUse"><feOffset dy="3" input="SourceAlpha"/><feGaussianBlur stdDeviation="3" result="h"/><feFlood flood-opacity="0.161"/><feComposite operator="in" in2="h"/><feComposite in="SourceGraphic"/></filter><filter id="i" x="202.939" y="56.753" width="41.373" height="42.386" filterUnits="userSpaceOnUse"><feOffset dy="3" input="SourceAlpha"/><feGaussianBlur stdDeviation="3" result="j"/><feFlood flood-opacity="0.161"/><feComposite operator="in" in2="j"/><feComposite in="SourceGraphic"/></filter><filter id="k" x="229.546" y="56.753" width="40.063" height="41.971" filterUnits="userSpaceOnUse"><feOffset dy="3" input="SourceAlpha"/><feGaussianBlur stdDeviation="3" result="l"/><feFlood flood-opacity="0.161"/><feComposite operator="in" in2="l"/><feComposite in="SourceGraphic"/></filter><filter id="m" x="254.842" y="56.753" width="36.381" height="42.386" filterUnits="userSpaceOnUse"><feOffset dy="3" input="SourceAlpha"/><feGaussianBlur stdDeviation="3" result="n"/><feFlood flood-opacity="0.161"/><feComposite operator="in" in2="n"/><feComposite in="SourceGraphic"/></filter><filter id="o" x="276.457" y="47.735" width="22.578" height="22.67" filterUnits="userSpaceOnUse"><feOffset dy="3" input="SourceAlpha"/><feGaussianBlur stdDeviation="3" result="p"/><feFlood flood-opacity="0.161"/><feComposite operator="in" in2="p"/><feComposite in="SourceGraphic"/></filter><filter id="q" x="276.457" y="57.167" width="22.578" height="41.557" filterUnits="userSpaceOnUse"><feOffset dy="3" input="SourceAlpha"/><feGaussianBlur stdDeviation="3" result="r"/><feFlood flood-opacity="0.161"/><feComposite operator="in" in2="r"/><feComposite in="SourceGraphic"/></filter><filter id="s" x="284.269" y="56.753" width="42.961" height="42.385" filterUnits="userSpaceOnUse"><feOffset dy="3" input="SourceAlpha"/><feGaussianBlur stdDeviation="3" result="t"/><feFlood flood-opacity="0.161"/><feComposite operator="in" in2="t"/><feComposite in="SourceGraphic"/></filter><filter id="u" x="312.464" y="56.753" width="40.061" height="41.971" filterUnits="userSpaceOnUse"><feOffset dy="3" input="SourceAlpha"/><feGaussianBlur stdDeviation="3" result="v"/><feFlood flood-opacity="0.161"/><feComposite operator="in" in2="v"/><feComposite in="SourceGraphic"/></filter><filter id="w" x="337.76" y="56.753" width="41.373" height="42.386" filterUnits="userSpaceOnUse"><feOffset dy="3" input="SourceAlpha"/><feGaussianBlur stdDeviation="3" result="x"/><feFlood flood-opacity="0.161"/><feComposite operator="in" in2="x"/><feComposite in="SourceGraphic"/></filter><filter id="y" x="364.366" y="56.753" width="36.382" height="42.386" filterUnits="userSpaceOnUse"><feOffset dy="3" input="SourceAlpha"/><feGaussianBlur stdDeviation="3" result="z"/><feFlood flood-opacity="0.161"/><feComposite operator="in" in2="z"/><feComposite in="SourceGraphic"/></filter><filter id="aa" x="0" y="0" width="64.406" height="69.781" filterUnits="userSpaceOnUse"><feOffset dy="3" input="SourceAlpha"/><feGaussianBlur stdDeviation="3" result="ab"/><feFlood flood-opacity="0.161"/><feComposite operator="in" in2="ab"/><feComposite in="SourceGraphic"/></filter><filter id="ac" x="37.948" y="18.903" width="31.964" height="31.975" filterUnits="userSpaceOnUse"><feOffset dy="3" input="SourceAlpha"/><feGaussianBlur stdDeviation="3" result="ad"/><feFlood flood-opacity="0.161"/><feComposite operator="in" in2="ad"/><feComposite in="SourceGraphic"/></filter><filter id="ae" x="21.923" y="6.276" width="69.909" height="102.999" filterUnits="userSpaceOnUse"><feOffset dy="3" input="SourceAlpha"/><feGaussianBlur stdDeviation="3" result="af"/><feFlood flood-opacity="0.161"/><feComposite operator="in" in2="af"/><feComposite in="SourceGraphic"/></filter></defs><g transform="translate(-23.253 -37.658)"><g class="q" transform="matrix(1, 0, 0, 1, 23.25, 37.66)"><path class="a" d="M1172.833,534.334a14.012,14.012,0,0,1,5.177.98,8.026,8.026,0,0,1,3.549,2.447l.421.559,6.4-6.7-.421-.411a21.8,21.8,0,0,0-15.805-6.16c-6.38,0-11.651,2.021-15.666,6.008s-6.053,9.245-6.053,15.627c0,6.345,2.036,11.58,6.054,15.557s9.3,5.994,15.722,5.994c6.479,0,11.782-2.077,15.76-6.172l.4-.409-6.383-6.745-.423.561a8.028,8.028,0,0,1-3.562,2.446,14.053,14.053,0,0,1-5.164.98,10.047,10.047,0,0,1-7.892-3.38,14.421,14.421,0,0,1,0-17.79,10.026,10.026,0,0,1,7.891-3.4" transform="translate(-1064.37 -480.5)"/></g><g class="p" transform="matrix(1, 0, 0, 1, 23.25, 37.66)"><path class="a" d="M1265.77,553.858a18.714,18.714,0,0,0-24.126,0,16.119,16.119,0,0,0,0,22.758,18.714,18.714,0,0,0,24.126,0,16.118,16.118,0,0,0,0-22.758m-7.742,16.569a5.757,5.757,0,0,1-8.64-.025,8.669,8.669,0,0,1,0-10.355,5.785,5.785,0,0,1,8.643,0,8.713,8.713,0,0,1,0,10.381" transform="translate(-1109.7 -493.29)"/></g><g class="o" transform="matrix(1, 0, 0, 1, 23.25, 37.66)"><path class="a" d="M1327.923,557.458l-.482.483a1.834,1.834,0,0,1-1.32.622,1.9,1.9,0,0,1-1.4-.495,1.813,1.813,0,0,1-.492-1.354V523.323h-10.049v34.1a9.575,9.575,0,0,0,2.849,7.142,10.127,10.127,0,0,0,7.343,2.766,10.493,10.493,0,0,0,7.869-3.336l.348-.366Z" transform="translate(-1150.17 -479.6)"/></g><g class="n" transform="matrix(1, 0, 0, 1, 23.25, 37.66)"><path class="a" d="M1359.646,597.871V563.708h4.578v4.233a8.177,8.177,0,0,1,3.393-3.359,10.2,10.2,0,0,1,5.048-1.288,9.116,9.116,0,0,1,7.259,3.22,12.35,12.35,0,0,1,2.773,8.351,12.71,12.71,0,0,1-3.463,9.259,13.474,13.474,0,0,1-15.011,2.2v11.548Zm4.578-22.752v7.292a11.085,11.085,0,0,0,5.36,1.358,7.81,7.81,0,0,0,5.946-2.393,8.786,8.786,0,0,0,2.267-6.3,8.6,8.6,0,0,0-1.887-5.763,6.081,6.081,0,0,0-4.854-2.221,6.17,6.17,0,0,0-4.924,2.244,8.615,8.615,0,0,0-1.908,5.786" transform="translate(-1173.99 -500.54)"/></g><g class="m" transform="matrix(1, 0, 0, 1, 23.25, 37.66)"><path class="a" d="M1438.146,577.006h-18.473a6.379,6.379,0,0,0,2.611,4.842,9.537,9.537,0,0,0,6.016,1.875,8.8,8.8,0,0,0,6.257-2.07l2.553,2.507a12.609,12.609,0,0,1-9.385,3.52,12.782,12.782,0,0,1-9.283-3.462,11.969,11.969,0,0,1-3.578-9.006,11.782,11.782,0,0,1,3.255-8.569,12.247,12.247,0,0,1,16.863.034,12.244,12.244,0,0,1,3.255,8.857,9.054,9.054,0,0,1-.092,1.473m-18.381-3.451h13.757a6.354,6.354,0,0,0-6.649-6.4,7.045,7.045,0,0,0-4.854,1.759,6.833,6.833,0,0,0-2.254,4.636" transform="translate(-1202.93 -500.54)"/></g><g class="l" transform="matrix(1, 0, 0, 1, 23.25, 37.66)"><path class="a" d="M1470.76,587.265V563.708h4.579v4.187a9.4,9.4,0,0,1,3.484-3.381,9.643,9.643,0,0,1,4.8-1.219,9.015,9.015,0,0,1,6.647,2.542,8.9,8.9,0,0,1,2.555,6.591v14.838h-4.578V573.324a6.265,6.265,0,0,0-1.644-4.509,5.663,5.663,0,0,0-4.292-1.726,6.2,6.2,0,0,0-5.037,2.359,9.142,9.142,0,0,0-1.932,5.993v11.824Z" transform="translate(-1232.21 -500.54)"/></g><g class="k" transform="matrix(1, 0, 0, 1, 23.25, 37.66)"><path class="a" d="M1542.283,580.571a6.146,6.146,0,0,1-2.6,5.154,11.163,11.163,0,0,1-6.879,1.955,12.888,12.888,0,0,1-8.9-3.29l2.347-2.692a9.67,9.67,0,0,0,6.463,2.116,7.5,7.5,0,0,0,3.761-.816,2.438,2.438,0,0,0,1.416-2.151,2.125,2.125,0,0,0-1.221-1.944,21.451,21.451,0,0,0-3.818-1.484c-.215-.061-.368-.107-.461-.138q-1.793-.53-2.887-.978a15.584,15.584,0,0,1-2.381-1.266,5.307,5.307,0,0,1-1.92-2.024,6.526,6.526,0,0,1,1.759-7.856,10.254,10.254,0,0,1,6.465-1.864,11.206,11.206,0,0,1,8.144,3.106l-2.37,2.737a8.13,8.13,0,0,0-5.637-1.978,6.578,6.578,0,0,0-3.346.748,2.228,2.228,0,0,0-1.277,1.966,2.144,2.144,0,0,0,.9,1.68,5.816,5.816,0,0,0,1.667,1.013q.771.276,2.566.85,1.563.461,2.461.772a17.19,17.19,0,0,1,2.139.943,7.618,7.618,0,0,1,1.933,1.322,6.1,6.1,0,0,1,1.185,1.748,5.523,5.523,0,0,1,.495,2.37" transform="translate(-1260.06 -500.54)"/></g><g class="j" transform="matrix(1, 0, 0, 1, 23.25, 37.66)"><rect class="a" width="4.578" height="4.67" transform="translate(285.46 53.74)"/></g><g class="i" transform="matrix(1, 0, 0, 1, 23.25, 37.66)"><rect class="a" width="4.578" height="23.557" transform="translate(285.46 63.17)"/></g><g class="h" transform="matrix(1, 0, 0, 1, 23.25, 37.66)"><path class="a" d="M1589.208,584.263a12.793,12.793,0,0,1,0-17.554,13.552,13.552,0,0,1,17.991,0,12.8,12.8,0,0,1,0,17.554,13.553,13.553,0,0,1-17.991,0m3.532-14.758a8.483,8.483,0,0,0-2.117,5.982,8.4,8.4,0,0,0,2.117,5.958,7.693,7.693,0,0,0,10.927,0,8.4,8.4,0,0,0,2.116-5.958,8.489,8.489,0,0,0-2.116-5.982,7.638,7.638,0,0,0-10.927,0" transform="translate(-1292.45 -500.54)"/></g><g class="g" transform="matrix(1, 0, 0, 1, 23.25, 37.66)"><path class="a" d="M1644.954,587.265V563.708h4.578v4.187a9.4,9.4,0,0,1,3.485-3.381,9.638,9.638,0,0,1,4.8-1.219,9.018,9.018,0,0,1,6.649,2.542,8.9,8.9,0,0,1,2.552,6.591v14.838h-4.578V573.324a6.264,6.264,0,0,0-1.646-4.509,5.655,5.655,0,0,0-4.289-1.726,6.2,6.2,0,0,0-5.039,2.359,9.139,9.139,0,0,0-1.932,5.993v11.824Z" transform="translate(-1323.49 -500.54)"/></g><g class="f" transform="matrix(1, 0, 0, 1, 23.25, 37.66)"><path class="a" d="M1721.377,577.006H1702.9a6.383,6.383,0,0,0,2.612,4.842,9.534,9.534,0,0,0,6.015,1.875,8.8,8.8,0,0,0,6.258-2.07l2.553,2.507a12.61,12.61,0,0,1-9.386,3.52,12.785,12.785,0,0,1-9.281-3.462,11.971,11.971,0,0,1-3.577-9.006,11.784,11.784,0,0,1,3.255-8.569,12.246,12.246,0,0,1,16.863.034,12.238,12.238,0,0,1,3.255,8.857,9.168,9.168,0,0,1-.092,1.473M1703,573.555h13.757a6.355,6.355,0,0,0-6.649-6.4,7.051,7.051,0,0,0-4.855,1.759,6.833,6.833,0,0,0-2.253,4.636" transform="translate(-1351.34 -500.54)"/></g><g class="e" transform="matrix(1, 0, 0, 1, 23.25, 37.66)"><path class="a" d="M1772.373,580.571a6.147,6.147,0,0,1-2.6,5.154,11.161,11.161,0,0,1-6.879,1.955,12.889,12.889,0,0,1-8.9-3.29l2.346-2.692a9.677,9.677,0,0,0,6.465,2.116,7.5,7.5,0,0,0,3.76-.816,2.435,2.435,0,0,0,1.416-2.151,2.127,2.127,0,0,0-1.219-1.944,21.51,21.51,0,0,0-3.819-1.484c-.216-.061-.368-.107-.46-.138q-1.795-.53-2.887-.978a15.511,15.511,0,0,1-2.382-1.266,5.328,5.328,0,0,1-1.921-2.024,6.531,6.531,0,0,1,1.76-7.856,10.249,10.249,0,0,1,6.465-1.864,11.209,11.209,0,0,1,8.144,3.106l-2.37,2.737a8.129,8.129,0,0,0-5.636-1.978,6.576,6.576,0,0,0-3.346.748,2.23,2.23,0,0,0-1.278,1.966,2.142,2.142,0,0,0,.9,1.68,5.834,5.834,0,0,0,1.668,1.013q.772.276,2.566.85,1.563.461,2.461.772a17.343,17.343,0,0,1,2.139.943,7.585,7.585,0,0,1,1.932,1.322,6.113,6.113,0,0,1,1.186,1.748,5.54,5.54,0,0,1,.5,2.37" transform="translate(-1380.62 -500.54)"/></g><g class="d" transform="matrix(1, 0, 0, 1, 23.25, 37.66)"><path class="a" d="M1032.038,444.067a.322.322,0,0,0-.3.222,2.93,2.93,0,0,1-1.242,1.6,3.862,3.862,0,0,1-2.01.595,42.141,42.141,0,0,1-4.8-1.21,30.886,30.886,0,0,0-8.366-1.207c-7.776,0-14.988,2.6-19.869,7.806a25.987,25.987,0,0,0-6.916,18.4c0,7.132,2.195,13.087,6.54,17.837,4.767,5.165,12.028,7.741,20.1,7.741a24.832,24.832,0,0,0,13.669-4.024,25.414,25.414,0,0,0,6.029-5.324.3.3,0,0,0-.021-.4l-1.007-1.008a.3.3,0,0,0-.411,0,31.932,31.932,0,0,1-5.981,4.566,21.292,21.292,0,0,1-10.738,2.79c-5.369,0-8.945-2-12.435-6q-5.285-5.986-5.271-16.031,0-10.926,4.991-17.153c3.346-4.158,6.76-6.228,12.021-6.228a15.068,15.068,0,0,1,12.432,5.8,24.271,24.271,0,0,1,3.857,7.872.3.3,0,0,0,.283.211h1.192a.3.3,0,0,0,.3-.31l-.682-16.232a.318.318,0,0,0-.318-.3Z" transform="translate(-979.53 -438.07)"/></g><g class="c" transform="matrix(1, 0, 0, 1, 23.25, 37.66)"><path class="a" d="M1082.218,490.766a6.982,6.982,0,1,1-6.987-6.988,6.989,6.989,0,0,1,6.987,6.988" transform="translate(-1021.31 -458.88)"/></g><g class="b" transform="matrix(1, 0, 0, 1, 23.25, 37.66)"><path class="a" d="M1086.482,482.444c-.009-.231-.013-.461-.018-.693-.186-10.673-6.973-17.047-11.827-20.251a25.329,25.329,0,0,0-9.581-3.766c-16.026-2.813-24.8,7.533-26.06,9.144a.3.3,0,0,0,.025.391l1.025,1.022a.3.3,0,0,0,.425,0c1.469-1.559,10.685-10.614,23.088-6.511,0,0,8.871,2.58,11.625,15.091,1.473,6.689,1.157,20.4-8.969,25.891,0,0-5.261,3.409-21.334,2.821a.3.3,0,0,0-.31.3l.006.539h-.009s.393,22.217-1.12,29.362a4.128,4.128,0,0,1-2.3,2.9,18.606,18.606,0,0,1-6.287,1.376.3.3,0,0,0-.278.3v1.6a.3.3,0,0,0,.3.3h32.139a.3.3,0,0,0,.3-.3v-1.587a.3.3,0,0,0-.283-.3,24.338,24.338,0,0,1-7.425-1.37,3.454,3.454,0,0,1-1.912-2.179c-.744-2.5-1.927-9.343-1.474-27.046a.307.307,0,0,1,.3-.294c30.256-.153,30.07-24.07,29.954-26.738" transform="translate(-1003.66 -444.98)"/></g></g></svg>