<svg xmlns="http://www.w3.org/2000/svg" width="51.442" height="51.442" viewBox="0 0 51.442 51.442"><defs><style>.a{fill:#00993e;}</style></defs><g transform="translate(0 0)"><path class="a" d="M51.442,47.675V9.741a3.818,3.818,0,0,0-3.768-3.768H37.009a6.685,6.685,0,0,0-13.294,0H3.768A3.808,3.808,0,0,0,0,9.741V47.675a3.772,3.772,0,0,0,3.768,3.768H47.675A3.966,3.966,0,0,0,51.442,47.675ZM35.5,32.711,49.935,17.8V47.149Zm-5.134-31.2a5.174,5.174,0,0,1,5.176,5.161,18.133,18.133,0,0,1-2.1,7.438c-1.334,2.634-2.6,3.818-3.077,3.818-.454,0-1.7-1.075-3.115-3.959a18.775,18.775,0,0,1-2.061-7.3,5.174,5.174,0,0,1,5.176-5.161ZM1.507,9.741a2.247,2.247,0,0,1,.226-.984l8.2,8.2-8.43,8.43Zm0,37.934V35.292L14.888,21.912,42.911,49.935H3.768A2.263,2.263,0,0,1,1.507,47.675Zm46.167,2.261H45.042L15.42,20.313a.754.754,0,0,0-1.066,0L1.507,33.161V27.523L11.536,17.494a.754.754,0,0,0,0-1.066L2.8,7.7a2.246,2.246,0,0,1,.964-.216H8.135L29.9,29.241a.754.754,0,0,0,1.071-.005l9.529-9.718a.754.754,0,0,0-1.076-1.055l-9,9.175L10.266,7.48h13.45a22.027,22.027,0,0,0,2.178,7.148c2.049,4.179,3.679,4.8,4.469,4.8,1.868,0,3.714-3.248,4.421-4.644A20.609,20.609,0,0,0,37.012,7.48H47.675a2.256,2.256,0,0,1,1.725.8l-6.992,7.131a.754.754,0,0,0,1.076,1.055l6.451-6.579v5.747L33.9,32.195a.754.754,0,0,0,.008,1.057L49.565,48.911a2.26,2.26,0,0,1-1.891,1.024Z" transform="translate(0 0)"/><path class="a" d="M270.694,40.066a3.526,3.526,0,1,0-3.519-3.526A3.526,3.526,0,0,0,270.694,40.066Zm0-5.544a2.019,2.019,0,1,1-2.012,2.019A2.017,2.017,0,0,1,270.694,34.522Z" transform="translate(-240.331 -29.698)"/><path class="a" d="M96.969,290.594a.754.754,0,0,0-1.349.673,5.1,5.1,0,0,1,.539,2.294,18.131,18.131,0,0,1-2.1,7.438c-1.334,2.634-2.6,3.818-3.077,3.818-.454,0-1.7-1.075-3.115-3.959a18.776,18.776,0,0,1-2.061-7.3,5.178,5.178,0,0,1,7.338-4.689.754.754,0,0,0,.629-1.37,6.685,6.685,0,0,0-9.474,6.058,20.409,20.409,0,0,0,2.215,7.961c2.049,4.179,3.679,4.8,4.469,4.8,1.868,0,3.714-3.248,4.421-4.644a19.406,19.406,0,0,0,2.262-8.119A6.591,6.591,0,0,0,96.969,290.594Z" transform="translate(-75.831 -258.068)"/><path class="a" d="M119.316,319.909a3.526,3.526,0,1,0,3.519,3.526A3.526,3.526,0,0,0,119.316,319.909Zm0,5.544a2.019,2.019,0,1,1,2.011-2.019A2.017,2.017,0,0,1,119.316,325.453Z" transform="translate(-104.162 -287.767)"/></g></svg>