<svg xmlns="http://www.w3.org/2000/svg" width="60.574" height="60.574" viewBox="0 0 60.574 60.574"><defs><style>.a{fill:#fff;}</style></defs><g transform="translate(0 0)"><g transform="translate(0 0)"><path class="a" d="M33.114,60.574H27.46a3.78,3.78,0,0,1-3.751-3.332l-.6-4.735a23.851,23.851,0,0,1-3.468-1.436L15.868,54a3.765,3.765,0,0,1-5.01-.318L6.883,49.709a3.755,3.755,0,0,1-.308-4.995l2.93-3.773a23.3,23.3,0,0,1-1.436-3.468l-4.745-.6A3.789,3.789,0,0,1,0,33.114V27.46A3.78,3.78,0,0,1,3.332,23.71l4.735-.6A23.851,23.851,0,0,1,9.5,19.639L6.575,15.868A3.763,3.763,0,0,1,6.9,10.855L10.871,6.88a3.758,3.758,0,0,1,4.995-.308l3.771,2.933a23.766,23.766,0,0,1,3.47-1.436l.6-4.745A3.78,3.78,0,0,1,27.46,0h5.654a3.78,3.78,0,0,1,3.751,3.332l.6,4.735A23.766,23.766,0,0,1,40.938,9.5l3.771-2.93a3.762,3.762,0,0,1,5.01.321l3.975,3.975A3.755,3.755,0,0,1,54,15.863l-2.93,3.773A23.3,23.3,0,0,1,52.508,23.1l4.745.6a3.784,3.784,0,0,1,3.321,3.753v5.654a3.78,3.78,0,0,1-3.332,3.751l-4.735.6a23.851,23.851,0,0,1-1.436,3.468L54,44.706a3.759,3.759,0,0,1-.321,5.01l-3.975,3.975A3.752,3.752,0,0,1,44.711,54l-3.773-2.93a23.3,23.3,0,0,1-3.468,1.436l-.6,4.745A3.784,3.784,0,0,1,33.114,60.574ZM19.51,48.308a1.28,1.28,0,0,1,.616.159A21.185,21.185,0,0,0,24.6,50.324a1.26,1.26,0,0,1,.9,1.052l.707,5.553A1.276,1.276,0,0,0,27.46,58.05h5.654a1.271,1.271,0,0,0,1.244-1.108l.709-5.563a1.26,1.26,0,0,1,.9-1.052,21.184,21.184,0,0,0,4.477-1.858,1.259,1.259,0,0,1,1.388.106l4.417,3.433a1.241,1.241,0,0,0,1.653-.086l4-4a1.248,1.248,0,0,0,.1-1.666l-3.433-4.417a1.26,1.26,0,0,1-.106-1.388,21.184,21.184,0,0,0,1.858-4.477,1.26,1.26,0,0,1,1.052-.9l5.553-.707a1.28,1.28,0,0,0,1.121-1.249V27.46a1.271,1.271,0,0,0-1.108-1.244l-5.563-.709a1.26,1.26,0,0,1-1.052-.9,21.185,21.185,0,0,0-1.858-4.477,1.255,1.255,0,0,1,.106-1.388l3.433-4.417a1.237,1.237,0,0,0-.083-1.651l-4-4a1.242,1.242,0,0,0-1.666-.1L41.842,12a1.264,1.264,0,0,1-1.391.106,21.1,21.1,0,0,0-4.477-1.858,1.26,1.26,0,0,1-.9-1.052l-.707-5.553a1.28,1.28,0,0,0-1.249-1.123H27.46a1.271,1.271,0,0,0-1.244,1.108l-.709,5.563a1.266,1.266,0,0,1-.9,1.055A21.09,21.09,0,0,0,20.126,12.1a1.264,1.264,0,0,1-1.391-.1L14.318,8.569a1.238,1.238,0,0,0-1.651.083l-4,4a1.248,1.248,0,0,0-.1,1.666L12,18.738a1.26,1.26,0,0,1,.106,1.388A21.053,21.053,0,0,0,10.25,24.6a1.26,1.26,0,0,1-1.052.9l-5.553.707A1.276,1.276,0,0,0,2.524,27.46v5.654a1.271,1.271,0,0,0,1.108,1.244l5.563.709a1.26,1.26,0,0,1,1.052.9A21.184,21.184,0,0,0,12.1,40.448,1.255,1.255,0,0,1,12,41.837L8.566,46.253A1.237,1.237,0,0,0,8.649,47.9l4,4a1.248,1.248,0,0,0,1.666.1l4.417-3.433a1.3,1.3,0,0,1,.777-.262Z" transform="translate(0 0)"/></g><g transform="translate(17.667 17.667)"><path class="a" d="M19.62,32.239a12.62,12.62,0,1,1,12.62-12.62A12.634,12.634,0,0,1,19.62,32.239Zm0-22.715a10.1,10.1,0,1,0,10.1,10.1A10.106,10.106,0,0,0,19.62,9.524Z" transform="translate(-7 -7)"/></g></g></svg>