<svg xmlns="http://www.w3.org/2000/svg" width="52.283" height="50.54" viewBox="0 0 52.283 50.54"><defs><style>.a{fill:#00993e;}</style></defs><g transform="translate(0 -8.533)"><g transform="translate(0 8.533)"><path class="a" d="M48.8,8.533H3.486A3.491,3.491,0,0,0,0,12.019V40.774a.872.872,0,0,0,.871.871h50.54a.872.872,0,0,0,.871-.871V12.019A3.49,3.49,0,0,0,48.8,8.533ZM50.54,39.9H1.743V12.019a1.745,1.745,0,0,1,1.744-1.744H48.8a1.745,1.745,0,0,1,1.744,1.744Z" transform="translate(0 -8.533)"/></g><g transform="translate(0 39.903)"><path class="a" d="M51.411,315.733H.871A.872.872,0,0,0,0,316.6v4.356a3.49,3.49,0,0,0,3.486,3.486H48.8a3.49,3.49,0,0,0,3.486-3.486V316.6A.872.872,0,0,0,51.411,315.733Zm-.871,5.227A1.745,1.745,0,0,1,48.8,322.7H3.486a1.745,1.745,0,0,1-1.744-1.744v-3.485h48.8v3.485Z" transform="translate(0 -315.733)"/></g><g transform="translate(22.656 43.388)"><path class="a" d="M227.967,349.867h-5.228a.871.871,0,1,0,0,1.743h5.228a.871.871,0,0,0,0-1.743Z" transform="translate(-221.867 -349.867)"/></g><g transform="translate(3.486 12.019)"><path class="a" d="M78.574,42.667H35.005a.872.872,0,0,0-.871.871V71.422a.872.872,0,0,0,.871.871H78.574a.872.872,0,0,0,.871-.871V43.538A.872.872,0,0,0,78.574,42.667ZM77.7,70.551H35.877V44.41H77.7V70.551Z" transform="translate(-34.134 -42.667)"/></g><g transform="translate(12.199 53.845)"><path class="a" d="M144.737,452.267H122.081a2.614,2.614,0,0,0,0,5.228h22.656a2.614,2.614,0,1,0,0-5.228Zm0,3.485H122.081a.871.871,0,0,1,0-1.743h22.656a.871.871,0,1,1,0,1.743Z" transform="translate(-119.467 -452.267)"/></g><g transform="translate(15.685 46.874)"><path class="a" d="M173.643,390.972c-2.891,0-4.357-2.052-4.357-6.1a.872.872,0,0,0-.871-.871H159.7a.872.872,0,0,0-.871.871c0,4.047-1.466,6.1-4.357,6.1a.871.871,0,0,0,0,1.743h19.17a.871.871,0,1,0,0-1.743Zm-14.926,0a8.348,8.348,0,0,0,1.832-5.228h7.019a8.338,8.338,0,0,0,1.832,5.228Z" transform="translate(-153.601 -384.001)"/></g><g transform="translate(30.504 26.832)"><path class="a" d="M309.857,195.107l-2.1-2.1,1.17-1.17a.871.871,0,0,0-.365-1.451l-8.714-2.614a.872.872,0,0,0-1.085,1.085l2.614,8.714a.871.871,0,0,0,1.451.366l1.232-1.233,2.1,2.1a.871.871,0,0,0,1.232,0l2.464-2.465A.87.87,0,0,0,309.857,195.107Zm-3.08,1.849-1.915-1.916a1.139,1.139,0,0,0-1.609,0l-.629.629-1.73-5.766,5.766,1.73-.674.674a.988.988,0,0,0,0,1.4l2.022,2.022Z" transform="translate(-298.723 -187.731)"/></g><g transform="translate(11.328 15.504)"><path class="a" d="M136.2,76.8h-24.4a.872.872,0,0,0-.871.871v4.357a.872.872,0,0,0,.871.871h24.4a.872.872,0,0,0,.871-.871V77.671A.872.872,0,0,0,136.2,76.8Zm-.871,4.357H112.677V78.543h22.656Z" transform="translate(-110.934 -76.8)"/></g><g transform="translate(14.813 25.089)"><path class="a" d="M152.909,170.667h-6.971a.872.872,0,0,0-.871.871v3.485a.872.872,0,0,0,.871.871h6.971a.872.872,0,0,0,.871-.871v-3.485A.872.872,0,0,0,152.909,170.667Zm-.871,3.485H146.81V172.41h5.228Z" transform="translate(-145.067 -170.667)"/></g><g transform="translate(11.328 15.504)"><path class="a" d="M136.2,76.8h-24.4a.872.872,0,0,0-.871.871V94.227a.872.872,0,0,0,.871.871h20.744a.872.872,0,0,0,.835-1.122l-1.1-3.678,3.673,1.1a.872.872,0,0,0,1.121-.835V77.671A.872.872,0,0,0,136.2,76.8Zm-.871,12.595-4.1-1.23a.872.872,0,0,0-1.085,1.086l1.232,4.106h-18.7V78.543h22.656Z" transform="translate(-110.934 -76.8)"/></g></g></svg>