<svg xmlns="http://www.w3.org/2000/svg" width="51.055" height="65.498" viewBox="0 0 51.055 65.498">
  <g id="smartphone" transform="translate(-56.591)">
    <path id="Trazado_5881" data-name="Trazado 5881" d="M57.548,13.3a.957.957,0,0,0,.957-.957V7.564a5.657,5.657,0,0,1,5.65-5.65H88.568a5.657,5.657,0,0,1,5.65,5.65v6.26a.957.957,0,1,0,1.914,0V7.564A7.573,7.573,0,0,0,88.568,0H64.156a7.573,7.573,0,0,0-7.565,7.564V12.34A.957.957,0,0,0,57.548,13.3Z" fill="#fff"/>
    <path id="Trazado_5882" data-name="Trazado 5882" d="M95.176,150.9a.957.957,0,0,0-.957.957v11.777a5.657,5.657,0,0,1-5.65,5.65H64.156a5.657,5.657,0,0,1-5.65-5.65V122.116a.957.957,0,1,0-1.914,0v41.516a7.573,7.573,0,0,0,7.565,7.564H88.568a7.573,7.573,0,0,0,7.565-7.564V151.855a.957.957,0,0,0-.957-.957Z" transform="translate(0 -105.698)" fill="#fff"/>
    <path id="Trazado_5883" data-name="Trazado 5883" d="M117.519,41.418a.957.957,0,0,0,.957-.957V33.736A3.74,3.74,0,0,0,114.74,30h-1.58a1.786,1.786,0,0,0-1.664,1.153l-.376,1a1.883,1.883,0,0,1-1.755,1.215H95.7a1.883,1.883,0,0,1-1.755-1.215l-.376-1A1.786,1.786,0,0,0,91.907,30h-1.58a3.74,3.74,0,0,0-3.736,3.736V84.106a3.74,3.74,0,0,0,3.736,3.736H107.54a.957.957,0,0,0,0-1.914H90.327a1.824,1.824,0,0,1-1.822-1.822V33.736a1.824,1.824,0,0,1,1.822-1.822h1.486l.343.913A3.806,3.806,0,0,0,95.7,35.284h13.663a3.806,3.806,0,0,0,3.547-2.457l.343-.913h1.486a1.824,1.824,0,0,1,1.822,1.822v6.725A.957.957,0,0,0,117.519,41.418Z" transform="translate(-26.172 -26.172)" fill="#fff"/>
    <path id="Trazado_5884" data-name="Trazado 5884" d="M279.3,370.806a3.74,3.74,0,0,0,3.736-3.736V355.313a.957.957,0,0,0-1.914,0V367.07a1.824,1.824,0,0,1-1.822,1.822h-3.121a.957.957,0,0,0,0,1.914Z" transform="translate(-190.727 -309.136)" fill="#fff"/>
    <path id="Trazado_5885" data-name="Trazado 5885" d="M177.591,29.072a.957.957,0,1,0,0-1.914H167.469a.957.957,0,1,0,0,1.914Z" transform="translate(-95.894 -23.692)" fill="#fff"/>
    <path id="Trazado_5886" data-name="Trazado 5886" d="M246.7,134.2a9.576,9.576,0,0,0-.962-4.2l.947-.947a3.148,3.148,0,1,0-4.452-4.452l-.955.955a9.667,9.667,0,0,0-8.793.2.957.957,0,1,0,.917,1.68,7.739,7.739,0,0,1,9.129,1.316,7.7,7.7,0,0,1,0,10.889l-4.1,4.1-4.493-4.493a.957.957,0,1,0-1.353,1.354l4.749,4.749-1.349,3.984a.451.451,0,0,1-.747.174l-13.464-13.464a.451.451,0,0,1,.174-.747l4.548-1.54a.956.956,0,0,0,.37-.23l3.617-3.617a.957.957,0,0,0-1.353-1.354l-3.459,3.459-4.336,1.468a2.366,2.366,0,0,0-.914,3.913l3.825,3.825a4.135,4.135,0,0,0,5.814,5.814l3.825,3.825a2.35,2.35,0,0,0,1.666.694,2.4,2.4,0,0,0,.544-.063,2.351,2.351,0,0,0,1.7-1.545l1.468-4.336L243.882,141A9.552,9.552,0,0,0,246.7,134.2Zm-3.114-8.245a1.234,1.234,0,1,1,1.745,1.745l-.632.632a9.754,9.754,0,0,0-.816-.93,9.471,9.471,0,0,0-.93-.815Zm-17.689,19.434a2.224,2.224,0,0,1-.28-2.8l3.078,3.078A2.224,2.224,0,0,1,225.895,145.389Z" transform="translate(-142.319 -107.898)" fill="#fff"/>
    <path id="Trazado_5887" data-name="Trazado 5887" d="M295.254,220.43a.957.957,0,0,0,0,1.353l.493.493a.957.957,0,1,0,1.353-1.354l-.493-.493A.957.957,0,0,0,295.254,220.43Z" transform="translate(-207.963 -192.056)" fill="#fff"/>
    <path id="Trazado_5888" data-name="Trazado 5888" d="M213.148,105.2a7.437,7.437,0,0,0-8.1,6.98.957.957,0,0,0,.9,1.012l.057,0a.957.957,0,0,0,.955-.9,5.523,5.523,0,0,1,6.018-5.186.957.957,0,0,0,.171-1.907Z" transform="translate(-129.511 -91.75)" fill="#fff"/>
    <path id="Trazado_5889" data-name="Trazado 5889" d="M239.143,135.195a3.622,3.622,0,0,0-4.214,3.632.957.957,0,0,0,.957.942h.015a.957.957,0,0,0,.942-.972,1.708,1.708,0,0,1,1.989-1.714.957.957,0,1,0,.312-1.889Z" transform="translate(-155.58 -117.9)" fill="#fff"/>
    <path id="Trazado_5890" data-name="Trazado 5890" d="M401.789,287.359a.957.957,0,0,0-1.907.17,5.523,5.523,0,0,1-5.186,6.018.957.957,0,0,0,.055,1.913l.057,0a7.437,7.437,0,0,0,6.98-8.1Z" transform="translate(-294.174 -249.928)" fill="#fff"/>
    <path id="Trazado_5891" data-name="Trazado 5891" d="M391.471,292.625a3.622,3.622,0,0,0,3.575-4.215.957.957,0,0,0-1.889.312,1.708,1.708,0,0,1-1.714,1.989.957.957,0,1,0-.03,1.914Z" transform="translate(-291.274 -250.906)" fill="#fff"/>
  </g>
</svg>
