<svg xmlns="http://www.w3.org/2000/svg" width="59.582" height="51.917" viewBox="0 0 59.582 51.917"><defs><style>.a{fill:#fff;}</style></defs><g transform="translate(0)"><g transform="translate(0 0)"><path class="a" d="M53.821,32.932a5.757,5.757,0,0,0-3.745,10.133L39.442,60.858a5.742,5.742,0,0,0-3.511-.107L26.842,51a5.761,5.761,0,1,0-9.2,1.713L6.577,73.387a5.768,5.768,0,1,0,3.251,1.626l11.1-20.736a5.8,5.8,0,0,0,.7.044,5.724,5.724,0,0,0,2.708-.678l8.573,9.194a5.761,5.761,0,1,0,9.416.28L53.486,44.443c.111.006.223.011.336.011a5.761,5.761,0,0,0,0-11.522ZM5.761,81.216a2.128,2.128,0,1,1,2.128-2.128A2.13,2.13,0,0,1,5.761,81.216ZM21.628,50.687a2.128,2.128,0,1,1,2.128-2.128A2.13,2.13,0,0,1,21.628,50.687Zm15.89,17.728a2.128,2.128,0,1,1,2.128-2.128A2.13,2.13,0,0,1,37.518,68.415Zm16.3-27.594a2.128,2.128,0,1,1,2.128-2.128A2.13,2.13,0,0,1,53.821,40.82Z" transform="translate(0 -32.932)"/></g></g></svg>