<svg xmlns="http://www.w3.org/2000/svg" width="34.775" height="61.368" viewBox="0 0 34.775 61.368"><defs><style>.a{fill:#00993e;}</style></defs><g transform="translate(0 0)"><g transform="translate(11.251 3.068)"><path class="a" d="M216.052,25.6H205.824a1.023,1.023,0,0,0,0,2.046h10.228a1.023,1.023,0,0,0,0-2.046Z" transform="translate(-204.801 -25.6)"/></g><g transform="translate(27.616 3.068)"><g transform="translate(0)"><path class="a" d="M343.38,25.6h-1.023a1.023,1.023,0,1,0,0,2.046h1.023a1.023,1.023,0,0,0,0-2.046Z" transform="translate(-341.334 -25.6)"/></g></g><g transform="translate(13.296 52.163)"><g transform="translate(0)"><path class="a" d="M227.228,435.2h-2.54a2.825,2.825,0,0,0-2.822,2.822v.494a2.824,2.824,0,0,0,2.821,2.821h2.54a2.825,2.825,0,0,0,2.822-2.821v-.494A2.825,2.825,0,0,0,227.228,435.2Zm.775,3.316a.776.776,0,0,1-.775.775h-2.54a.776.776,0,0,1-.776-.775v-.494a.777.777,0,0,1,.776-.776h2.539a.776.776,0,0,1,.776.776Z" transform="translate(-221.867 -435.2)"/></g></g><g transform="translate(0 0)"><g transform="translate(0)"><path class="a" d="M142.012,0H114.63a3.7,3.7,0,0,0-3.7,3.7V57.67a3.7,3.7,0,0,0,3.7,3.7h27.38a3.7,3.7,0,0,0,3.7-3.7V3.7A3.7,3.7,0,0,0,142.012,0Zm1.651,57.67a1.653,1.653,0,0,1-1.651,1.652H114.63a1.654,1.654,0,0,1-1.652-1.651V3.7a1.654,1.654,0,0,1,1.652-1.652h27.38A1.654,1.654,0,0,1,143.662,3.7V57.67Z" transform="translate(-110.933)"/></g></g><g transform="translate(0 6.137)"><path class="a" d="M144.686,51.2H111.957a1.023,1.023,0,0,0-1.023,1.023V95.18a1.023,1.023,0,0,0,1.023,1.023h32.73a1.023,1.023,0,0,0,1.023-1.023V52.223A1.023,1.023,0,0,0,144.686,51.2Zm-1.023,42.957H112.98V53.246h30.684Z" transform="translate(-110.934 -51.2)"/></g></g></svg>