<svg xmlns="http://www.w3.org/2000/svg" width="64.581" height="68.951" viewBox="0 0 64.581 68.951"><defs><style>.a{fill:#fff;}</style></defs><g transform="translate(0 0)"><path class="a" d="M42.627,322.3a1.018,1.018,0,0,0,1.037.887H57.1a1,1,0,0,0,1-1.3l-1.718-5.628,5.353-3.381a3.1,3.1,0,0,1,2.254-.287c.021.006.043.011.065.015l11.18,2.06a14.678,14.678,0,0,0,9.07-1.28,1.012,1.012,0,0,0,.128-.075l19.335-13.276a1.045,1.045,0,0,0,.3-1.4,5.518,5.518,0,0,0-7.358-2.012l-.18.1a4.742,4.742,0,0,0-5.54-1.273l-.023.012-.653.352a6.119,6.119,0,0,0-6.893-.542l-4.14,2.253H73.756a7.841,7.841,0,0,1-3.394-.779l-.767-.371a13.367,13.367,0,0,0-13.912,1.358c-.023.017-.045.035-.067.054l-1.851,1.649a6.213,6.213,0,0,1-2.143,1.245l-.99-3.279a1.073,1.073,0,0,0-1-.771H40.679A1.076,1.076,0,0,0,39.9,297a1.044,1.044,0,0,0-.255.819Zm49.317-25a2.547,2.547,0,0,1,2.648.459l-7.063,3.81-.219.115a6.569,6.569,0,0,0-.8-1.457Zm-7.515-.209.025-.014a4.027,4.027,0,0,1,3.763-.143l-3.268,1.761a6.548,6.548,0,0,0-1.827-.893Zm-29.273,3.9,1.819-1.619a11.286,11.286,0,0,1,11.713-1.122l.767.372a9.943,9.943,0,0,0,4.3.988h7.436a4.491,4.491,0,0,1,4.348,3.384l-5.115-.232a32.427,32.427,0,0,0-5.9.272,1.045,1.045,0,1,0,.287,2.07,30.373,30.373,0,0,1,5.523-.255l6.343.287h.047a1.045,1.045,0,0,0,1.045-1.045c0-.093,0-.186-.007-.278l.752-.4,9.189-4.957a3.431,3.431,0,0,1,3.952.488l-18.346,12.6a12.575,12.575,0,0,1-7.7,1.066L64.458,310.55a5.183,5.183,0,0,0-3.771.513l-.048.029-4.9,3.095-3.512-11.518a8.307,8.307,0,0,0,2.923-1.684Zm-6.3-2.277,6.825,22.386h-11.1l-2.73-22.386Z" transform="translate(-39.634 -254.233)"/><path class="a" d="M90.754,438.392a2.836,2.836,0,1,0-2.836-2.836A2.836,2.836,0,0,0,90.754,438.392Zm0-3.582a.746.746,0,1,1-.746.746A.746.746,0,0,1,90.754,434.81Z" transform="translate(-80.712 -371.872)"/><path class="a" d="M139.944,45.868l2.835.273a14.036,14.036,0,0,0,1.4,3.334l-1.8,2.174a1.045,1.045,0,0,0,.066,1.406l3.4,3.4a1.045,1.045,0,0,0,1.405.066l2.179-1.805a14.294,14.294,0,0,0,3.328,1.407l.273,2.845a1.053,1.053,0,0,0,1.041.953h4.82a1.053,1.053,0,0,0,1.04-.954l.273-2.839a14.045,14.045,0,0,0,3.334-1.4l2.174,1.8a1.045,1.045,0,0,0,1.4-.067l3.4-3.4a1.045,1.045,0,0,0,.066-1.405l-1.806-2.18a14.288,14.288,0,0,0,1.407-3.329l2.793-.273a1.045,1.045,0,0,0,.943-1.04v-4.82a1.045,1.045,0,0,0-.944-1.04l-2.835-.273a14.037,14.037,0,0,0-1.4-3.334l1.8-2.174a1.045,1.045,0,0,0-.061-1.4l-3.356-3.4a1.045,1.045,0,0,0-1.409-.071l-2.179,1.806a14.3,14.3,0,0,0-3.328-1.407l-.273-2.8A1.019,1.019,0,0,0,158.893,25h-4.819a1.018,1.018,0,0,0-1.04.914l-.273,2.819a14.016,14.016,0,0,0-3.334,1.395l-2.174-1.8a1.045,1.045,0,0,0-1.405.064l-3.4,3.4a1.045,1.045,0,0,0-.066,1.4l1.806,2.179a14.294,14.294,0,0,0-1.407,3.328l-2.836.273A1.045,1.045,0,0,0,139,40.009v4.819a1.045,1.045,0,0,0,.944,1.04Zm1.145-4.911,2.627-.254a1.045,1.045,0,0,0,.921-.819,12.23,12.23,0,0,1,1.708-4.043,1.045,1.045,0,0,0-.073-1.233L144.6,32.587l2.054-2.054,2.021,1.674a1.045,1.045,0,0,0,1.246.065,11.848,11.848,0,0,1,4.031-1.7,1.01,1.01,0,0,0,.819-.89l.254-2.6h2.922l.254,2.6a1.027,1.027,0,0,0,.819.905,12.21,12.21,0,0,1,4.044,1.7,1.045,1.045,0,0,0,1.233-.077l2.017-1.672,2.02,2.045-1.68,2.025a1.045,1.045,0,0,0-.064,1.246,11.851,11.851,0,0,1,1.7,4.03,1.045,1.045,0,0,0,.921.819l2.627.254v2.923l-2.585.252a1.045,1.045,0,0,0-.92.819A12.226,12.226,0,0,1,166.62,49a1.045,1.045,0,0,0,.073,1.233l1.675,2.02L166.314,54.3l-2.021-1.674a1.045,1.045,0,0,0-1.246-.065,11.849,11.849,0,0,1-4.031,1.7,1.056,1.056,0,0,0-.819.93l-.253,2.637h-2.922l-.254-2.637a1.05,1.05,0,0,0-.819-.925,12.236,12.236,0,0,1-4.044-1.709,1.045,1.045,0,0,0-1.233.072l-2.021,1.673L144.6,52.249l1.674-2.021a1.045,1.045,0,0,0,.064-1.246,11.851,11.851,0,0,1-1.7-4.03,1.045,1.045,0,0,0-.921-.819l-2.627-.254Z" transform="translate(-124.171 -24.997)"/><path class="a" d="M196.7,92.707A10.428,10.428,0,1,0,186.27,82.278,10.428,10.428,0,0,0,196.7,92.707Zm0-18.767a8.339,8.339,0,1,1-8.339,8.339A8.339,8.339,0,0,1,196.7,73.94Z" transform="translate(-164.386 -64.858)"/><path class="a" d="M226.038,125.046a1.045,1.045,0,0,0,1.46,0l5-4.882a1.045,1.045,0,1,0-1.459-1.5l-4.271,4.169-2.046-2a1.045,1.045,0,1,0-1.459,1.5Z" transform="translate(-195.59 -104.437)"/></g></svg>