<svg xmlns="http://www.w3.org/2000/svg" viewBox="0 0 82.78 53.4"><g id="Capa_2" data-name="Capa 2"><g id="Layer_1" data-name="Layer 1"><path d="M41.1,0C50,.12,57.43,3.13,64.34,7.68A80.31,80.31,0,0,1,81.06,22.73c2.15,2.51,2.31,5.14.36,7.5A72.5,72.5,0,0,1,59.19,48.76c-12.51,6.55-24.83,6.06-37-.77A73.81,73.81,0,0,1,1.54,30.46c-1.91-2.28-2.09-4.92-.28-7.09C8.65,14.52,17.17,7.08,28,2.67A36.15,36.15,0,0,1,41.1,0Zm.15,5.1A31.9,31.9,0,0,0,29.58,7.59C20,11.57,12.42,18.25,5.69,26c-.52.59-.43,1,0,1.55,5.88,6.78,12.47,12.69,20.5,16.83,9.23,4.76,18.62,5.35,28.18,1,9-4.1,16.26-10.51,22.7-17.91.59-.67.33-1.1-.14-1.64A71.52,71.52,0,0,0,59.05,10.45,35.79,35.79,0,0,0,41.25,5.1Z"/><path d="M41.38,8.93A17.8,17.8,0,1,1,23.6,26.74,17.77,17.77,0,0,1,41.38,8.93Zm0,30.47a12.68,12.68,0,1,0-12.7-12.68A12.63,12.63,0,0,0,41.42,39.4Z"/></g></g></svg>